<svg width="800" height="800" viewBox="0 0 800 800" fill="none" xmlns="http://www.w3.org/2000/svg">
<path d="M0.000822306 2.07977C1.14899 2.07977 2.07977 1.14899 2.07977 0.000822306C2.07977 -1.14735 1.14899 -2.07812 0.000822306 -2.07812C-1.14735 -2.07812 -2.07812 -1.14735 -2.07812 0.000822306C-2.07812 1.14899 -1.14735 2.07977 0.000822306 2.07977Z" fill="white"/>
<path d="M44.4461 2.07977C45.5943 2.07977 46.5251 1.14899 46.5251 0.000822306C46.5251 -1.14735 45.5943 -2.07812 44.4461 -2.07812C43.298 -2.07812 42.3672 -1.14735 42.3672 0.000822306C42.3672 1.14899 43.298 2.07977 44.4461 2.07977Z" fill="white"/>
<path d="M88.8914 2.07977C90.0396 2.07977 90.9704 1.14899 90.9704 0.000822306C90.9704 -1.14735 90.0396 -2.07812 88.8914 -2.07812C87.7433 -2.07812 86.8125 -1.14735 86.8125 0.000822306C86.8125 1.14899 87.7433 2.07977 88.8914 2.07977Z" fill="white"/>
<path d="M133.337 2.07977C134.485 2.07977 135.416 1.14899 135.416 0.000822306C135.416 -1.14735 134.485 -2.07812 133.337 -2.07812C132.189 -2.07812 131.258 -1.14735 131.258 0.000822306C131.258 1.14899 132.189 2.07977 133.337 2.07977Z" fill="white"/>
<path d="M177.782 2.07977C178.93 2.07977 179.861 1.14899 179.861 0.000822306C179.861 -1.14735 178.93 -2.07812 177.782 -2.07812C176.634 -2.07812 175.703 -1.14735 175.703 0.000822306C175.703 1.14899 176.634 2.07977 177.782 2.07977Z" fill="white"/>
<path d="M222.22 2.07977C223.368 2.07977 224.299 1.14899 224.299 0.000822306C224.299 -1.14735 223.368 -2.07812 222.22 -2.07812C221.071 -2.07812 220.141 -1.14735 220.141 0.000822306C220.141 1.14899 221.071 2.07977 222.22 2.07977Z" fill="white"/>
<path d="M266.665 2.07977C267.813 2.07977 268.744 1.14899 268.744 0.000822306C268.744 -1.14735 267.813 -2.07812 266.665 -2.07812C265.517 -2.07812 264.586 -1.14735 264.586 0.000822306C264.586 1.14899 265.517 2.07977 266.665 2.07977Z" fill="white"/>
<path d="M311.11 2.07977C312.258 2.07977 313.189 1.14899 313.189 0.000822306C313.189 -1.14735 312.258 -2.07812 311.11 -2.07812C309.962 -2.07812 309.031 -1.14735 309.031 0.000822306C309.031 1.14899 309.962 2.07977 311.11 2.07977Z" fill="white"/>
<path d="M355.556 2.07977C356.704 2.07977 357.634 1.14899 357.634 0.000822306C357.634 -1.14735 356.704 -2.07812 355.556 -2.07812C354.407 -2.07812 353.477 -1.14735 353.477 0.000822306C353.477 1.14899 354.407 2.07977 355.556 2.07977Z" fill="white"/>
<path d="M400.001 2.07977C401.149 2.07977 402.08 1.14899 402.08 0.000822306C402.08 -1.14735 401.149 -2.07812 400.001 -2.07812C398.853 -2.07812 397.922 -1.14735 397.922 0.000822306C397.922 1.14899 398.853 2.07977 400.001 2.07977Z" fill="white"/>
<path d="M444.446 2.07977C445.594 2.07977 446.525 1.14899 446.525 0.000822306C446.525 -1.14735 445.594 -2.07812 444.446 -2.07812C443.298 -2.07812 442.367 -1.14735 442.367 0.000822306C442.367 1.14899 443.298 2.07977 444.446 2.07977Z" fill="white"/>
<path d="M488.891 2.07977C490.04 2.07977 490.97 1.14899 490.97 0.000822306C490.97 -1.14735 490.04 -2.07812 488.891 -2.07812C487.743 -2.07812 486.812 -1.14735 486.812 0.000822306C486.812 1.14899 487.743 2.07977 488.891 2.07977Z" fill="white"/>
<path d="M533.337 2.07977C534.485 2.07977 535.416 1.14899 535.416 0.000822306C535.416 -1.14735 534.485 -2.07812 533.337 -2.07812C532.189 -2.07812 531.258 -1.14735 531.258 0.000822306C531.258 1.14899 532.189 2.07977 533.337 2.07977Z" fill="white"/>
<path d="M577.782 2.07977C578.93 2.07977 579.861 1.14899 579.861 0.000822306C579.861 -1.14735 578.93 -2.07812 577.782 -2.07812C576.634 -2.07812 575.703 -1.14735 575.703 0.000822306C575.703 1.14899 576.634 2.07977 577.782 2.07977Z" fill="white"/>
<path d="M622.22 2.07977C623.368 2.07977 624.299 1.14899 624.299 0.000822306C624.299 -1.14735 623.368 -2.07812 622.22 -2.07812C621.071 -2.07812 620.141 -1.14735 620.141 0.000822306C620.141 1.14899 621.071 2.07977 622.22 2.07977Z" fill="white"/>
<path d="M666.665 2.07977C667.813 2.07977 668.744 1.14899 668.744 0.000822306C668.744 -1.14735 667.813 -2.07812 666.665 -2.07812C665.517 -2.07812 664.586 -1.14735 664.586 0.000822306C664.586 1.14899 665.517 2.07977 666.665 2.07977Z" fill="white"/>
<path d="M711.11 2.07977C712.258 2.07977 713.189 1.14899 713.189 0.000822306C713.189 -1.14735 712.258 -2.07812 711.11 -2.07812C709.962 -2.07812 709.031 -1.14735 709.031 0.000822306C709.031 1.14899 709.962 2.07977 711.11 2.07977Z" fill="white"/>
<path d="M755.555 2.07977C756.704 2.07977 757.634 1.14899 757.634 0.000822306C757.634 -1.14735 756.704 -2.07812 755.555 -2.07812C754.407 -2.07812 753.477 -1.14735 753.477 0.000822306C753.477 1.14899 754.407 2.07977 755.555 2.07977Z" fill="white"/>
<path d="M800.001 2.07977C801.149 2.07977 802.08 1.14899 802.08 0.000822306C802.08 -1.14735 801.149 -2.07812 800.001 -2.07812C798.853 -2.07812 797.922 -1.14735 797.922 0.000822306C797.922 1.14899 798.853 2.07977 800.001 2.07977Z" fill="white"/>
<path d="M0.000822306 46.5251C1.14899 46.5251 2.07977 45.5943 2.07977 44.4461C2.07977 43.298 1.14899 42.3672 0.000822306 42.3672C-1.14735 42.3672 -2.07812 43.298 -2.07812 44.4461C-2.07812 45.5943 -1.14735 46.5251 0.000822306 46.5251Z" fill="white"/>
<path d="M44.4461 46.5251C45.5943 46.5251 46.5251 45.5943 46.5251 44.4461C46.5251 43.298 45.5943 42.3672 44.4461 42.3672C43.298 42.3672 42.3672 43.298 42.3672 44.4461C42.3672 45.5943 43.298 46.5251 44.4461 46.5251Z" fill="white"/>
<path d="M88.8914 46.5251C90.0396 46.5251 90.9704 45.5943 90.9704 44.4461C90.9704 43.298 90.0396 42.3672 88.8914 42.3672C87.7433 42.3672 86.8125 43.298 86.8125 44.4461C86.8125 45.5943 87.7433 46.5251 88.8914 46.5251Z" fill="white"/>
<path d="M133.337 46.5251C134.485 46.5251 135.416 45.5943 135.416 44.4461C135.416 43.298 134.485 42.3672 133.337 42.3672C132.189 42.3672 131.258 43.298 131.258 44.4461C131.258 45.5943 132.189 46.5251 133.337 46.5251Z" fill="white"/>
<path d="M177.782 46.5251C178.93 46.5251 179.861 45.5943 179.861 44.4461C179.861 43.298 178.93 42.3672 177.782 42.3672C176.634 42.3672 175.703 43.298 175.703 44.4461C175.703 45.5943 176.634 46.5251 177.782 46.5251Z" fill="white"/>
<path d="M222.22 46.5251C223.368 46.5251 224.299 45.5943 224.299 44.4461C224.299 43.298 223.368 42.3672 222.22 42.3672C221.071 42.3672 220.141 43.298 220.141 44.4461C220.141 45.5943 221.071 46.5251 222.22 46.5251Z" fill="white"/>
<path d="M266.665 46.5251C267.813 46.5251 268.744 45.5943 268.744 44.4461C268.744 43.298 267.813 42.3672 266.665 42.3672C265.517 42.3672 264.586 43.298 264.586 44.4461C264.586 45.5943 265.517 46.5251 266.665 46.5251Z" fill="white"/>
<path d="M311.11 46.5251C312.258 46.5251 313.189 45.5943 313.189 44.4461C313.189 43.298 312.258 42.3672 311.11 42.3672C309.962 42.3672 309.031 43.298 309.031 44.4461C309.031 45.5943 309.962 46.5251 311.11 46.5251Z" fill="white"/>
<path d="M355.556 46.5251C356.704 46.5251 357.634 45.5943 357.634 44.4461C357.634 43.298 356.704 42.3672 355.556 42.3672C354.407 42.3672 353.477 43.298 353.477 44.4461C353.477 45.5943 354.407 46.5251 355.556 46.5251Z" fill="white"/>
<path d="M400.001 46.5251C401.149 46.5251 402.08 45.5943 402.08 44.4461C402.08 43.298 401.149 42.3672 400.001 42.3672C398.853 42.3672 397.922 43.298 397.922 44.4461C397.922 45.5943 398.853 46.5251 400.001 46.5251Z" fill="white"/>
<path d="M444.446 46.5251C445.594 46.5251 446.525 45.5943 446.525 44.4461C446.525 43.298 445.594 42.3672 444.446 42.3672C443.298 42.3672 442.367 43.298 442.367 44.4461C442.367 45.5943 443.298 46.5251 444.446 46.5251Z" fill="white"/>
<path d="M488.891 46.5251C490.04 46.5251 490.97 45.5943 490.97 44.4461C490.97 43.298 490.04 42.3672 488.891 42.3672C487.743 42.3672 486.812 43.298 486.812 44.4461C486.812 45.5943 487.743 46.5251 488.891 46.5251Z" fill="white"/>
<path d="M533.337 46.5251C534.485 46.5251 535.416 45.5943 535.416 44.4461C535.416 43.298 534.485 42.3672 533.337 42.3672C532.189 42.3672 531.258 43.298 531.258 44.4461C531.258 45.5943 532.189 46.5251 533.337 46.5251Z" fill="white"/>
<path d="M577.782 46.5251C578.93 46.5251 579.861 45.5943 579.861 44.4461C579.861 43.298 578.93 42.3672 577.782 42.3672C576.634 42.3672 575.703 43.298 575.703 44.4461C575.703 45.5943 576.634 46.5251 577.782 46.5251Z" fill="white"/>
<path d="M622.22 46.5251C623.368 46.5251 624.299 45.5943 624.299 44.4461C624.299 43.298 623.368 42.3672 622.22 42.3672C621.071 42.3672 620.141 43.298 620.141 44.4461C620.141 45.5943 621.071 46.5251 622.22 46.5251Z" fill="white"/>
<path d="M666.665 46.5251C667.813 46.5251 668.744 45.5943 668.744 44.4461C668.744 43.298 667.813 42.3672 666.665 42.3672C665.517 42.3672 664.586 43.298 664.586 44.4461C664.586 45.5943 665.517 46.5251 666.665 46.5251Z" fill="white"/>
<path d="M711.11 46.5251C712.258 46.5251 713.189 45.5943 713.189 44.4461C713.189 43.298 712.258 42.3672 711.11 42.3672C709.962 42.3672 709.031 43.298 709.031 44.4461C709.031 45.5943 709.962 46.5251 711.11 46.5251Z" fill="white"/>
<path d="M755.555 46.5251C756.704 46.5251 757.634 45.5943 757.634 44.4461C757.634 43.298 756.704 42.3672 755.555 42.3672C754.407 42.3672 753.477 43.298 753.477 44.4461C753.477 45.5943 754.407 46.5251 755.555 46.5251Z" fill="white"/>
<path d="M800.001 46.5251C801.149 46.5251 802.08 45.5943 802.08 44.4461C802.08 43.298 801.149 42.3672 800.001 42.3672C798.853 42.3672 797.922 43.298 797.922 44.4461C797.922 45.5943 798.853 46.5251 800.001 46.5251Z" fill="white"/>
<path d="M0.000822306 90.9684C1.14899 90.9684 2.07977 90.0377 2.07977 88.8895C2.07977 87.7413 1.14899 86.8105 0.000822306 86.8105C-1.14735 86.8105 -2.07812 87.7413 -2.07812 88.8895C-2.07812 90.0377 -1.14735 90.9684 0.000822306 90.9684Z" fill="white"/>
<path d="M44.4461 90.9684C45.5943 90.9684 46.5251 90.0377 46.5251 88.8895C46.5251 87.7413 45.5943 86.8105 44.4461 86.8105C43.298 86.8105 42.3672 87.7413 42.3672 88.8895C42.3672 90.0377 43.298 90.9684 44.4461 90.9684Z" fill="white"/>
<path d="M88.8914 90.9684C90.0396 90.9684 90.9704 90.0377 90.9704 88.8895C90.9704 87.7413 90.0396 86.8105 88.8914 86.8105C87.7433 86.8105 86.8125 87.7413 86.8125 88.8895C86.8125 90.0377 87.7433 90.9684 88.8914 90.9684Z" fill="white"/>
<path d="M133.337 90.9684C134.485 90.9684 135.416 90.0377 135.416 88.8895C135.416 87.7413 134.485 86.8105 133.337 86.8105C132.189 86.8105 131.258 87.7413 131.258 88.8895C131.258 90.0377 132.189 90.9684 133.337 90.9684Z" fill="white"/>
<path d="M177.782 90.9684C178.93 90.9684 179.861 90.0377 179.861 88.8895C179.861 87.7413 178.93 86.8105 177.782 86.8105C176.634 86.8105 175.703 87.7413 175.703 88.8895C175.703 90.0377 176.634 90.9684 177.782 90.9684Z" fill="white"/>
<path d="M222.22 90.9684C223.368 90.9684 224.299 90.0377 224.299 88.8895C224.299 87.7413 223.368 86.8105 222.22 86.8105C221.071 86.8105 220.141 87.7413 220.141 88.8895C220.141 90.0377 221.071 90.9684 222.22 90.9684Z" fill="white"/>
<path d="M266.665 90.9684C267.813 90.9684 268.744 90.0377 268.744 88.8895C268.744 87.7413 267.813 86.8105 266.665 86.8105C265.517 86.8105 264.586 87.7413 264.586 88.8895C264.586 90.0377 265.517 90.9684 266.665 90.9684Z" fill="white"/>
<path d="M311.11 90.9684C312.258 90.9684 313.189 90.0377 313.189 88.8895C313.189 87.7413 312.258 86.8105 311.11 86.8105C309.962 86.8105 309.031 87.7413 309.031 88.8895C309.031 90.0377 309.962 90.9684 311.11 90.9684Z" fill="white"/>
<path d="M355.556 90.9684C356.704 90.9684 357.634 90.0377 357.634 88.8895C357.634 87.7413 356.704 86.8105 355.556 86.8105C354.407 86.8105 353.477 87.7413 353.477 88.8895C353.477 90.0377 354.407 90.9684 355.556 90.9684Z" fill="white"/>
<path d="M400.001 90.9684C401.149 90.9684 402.08 90.0377 402.08 88.8895C402.08 87.7413 401.149 86.8105 400.001 86.8105C398.853 86.8105 397.922 87.7413 397.922 88.8895C397.922 90.0377 398.853 90.9684 400.001 90.9684Z" fill="white"/>
<path d="M444.446 90.9684C445.594 90.9684 446.525 90.0377 446.525 88.8895C446.525 87.7413 445.594 86.8105 444.446 86.8105C443.298 86.8105 442.367 87.7413 442.367 88.8895C442.367 90.0377 443.298 90.9684 444.446 90.9684Z" fill="white"/>
<path d="M488.891 90.9684C490.04 90.9684 490.97 90.0377 490.97 88.8895C490.97 87.7413 490.04 86.8105 488.891 86.8105C487.743 86.8105 486.812 87.7413 486.812 88.8895C486.812 90.0377 487.743 90.9684 488.891 90.9684Z" fill="white"/>
<path d="M533.337 90.9684C534.485 90.9684 535.416 90.0377 535.416 88.8895C535.416 87.7413 534.485 86.8105 533.337 86.8105C532.189 86.8105 531.258 87.7413 531.258 88.8895C531.258 90.0377 532.189 90.9684 533.337 90.9684Z" fill="white"/>
<path d="M577.782 90.9684C578.93 90.9684 579.861 90.0377 579.861 88.8895C579.861 87.7413 578.93 86.8105 577.782 86.8105C576.634 86.8105 575.703 87.7413 575.703 88.8895C575.703 90.0377 576.634 90.9684 577.782 90.9684Z" fill="white"/>
<path d="M622.22 90.9684C623.368 90.9684 624.299 90.0377 624.299 88.8895C624.299 87.7413 623.368 86.8105 622.22 86.8105C621.071 86.8105 620.141 87.7413 620.141 88.8895C620.141 90.0377 621.071 90.9684 622.22 90.9684Z" fill="white"/>
<path d="M666.665 90.9684C667.813 90.9684 668.744 90.0377 668.744 88.8895C668.744 87.7413 667.813 86.8105 666.665 86.8105C665.517 86.8105 664.586 87.7413 664.586 88.8895C664.586 90.0377 665.517 90.9684 666.665 90.9684Z" fill="white"/>
<path d="M711.11 90.9684C712.258 90.9684 713.189 90.0377 713.189 88.8895C713.189 87.7413 712.258 86.8105 711.11 86.8105C709.962 86.8105 709.031 87.7413 709.031 88.8895C709.031 90.0377 709.962 90.9684 711.11 90.9684Z" fill="white"/>
<path d="M755.555 90.9684C756.704 90.9684 757.634 90.0377 757.634 88.8895C757.634 87.7413 756.704 86.8105 755.555 86.8105C754.407 86.8105 753.477 87.7413 753.477 88.8895C753.477 90.0377 754.407 90.9684 755.555 90.9684Z" fill="white"/>
<path d="M800.001 90.9684C801.149 90.9684 802.08 90.0377 802.08 88.8895C802.08 87.7413 801.149 86.8105 800.001 86.8105C798.853 86.8105 797.922 87.7413 797.922 88.8895C797.922 90.0377 798.853 90.9684 800.001 90.9684Z" fill="white"/>
<path d="M0.000822306 135.414C1.14899 135.414 2.07977 134.483 2.07977 133.335C2.07977 132.187 1.14899 131.256 0.000822306 131.256C-1.14735 131.256 -2.07812 132.187 -2.07812 133.335C-2.07812 134.483 -1.14735 135.414 0.000822306 135.414Z" fill="white"/>
<path d="M44.4461 135.414C45.5943 135.414 46.5251 134.483 46.5251 133.335C46.5251 132.187 45.5943 131.256 44.4461 131.256C43.298 131.256 42.3672 132.187 42.3672 133.335C42.3672 134.483 43.298 135.414 44.4461 135.414Z" fill="white"/>
<path d="M88.8914 135.414C90.0396 135.414 90.9704 134.483 90.9704 133.335C90.9704 132.187 90.0396 131.256 88.8914 131.256C87.7433 131.256 86.8125 132.187 86.8125 133.335C86.8125 134.483 87.7433 135.414 88.8914 135.414Z" fill="white"/>
<path d="M133.337 135.414C134.485 135.414 135.416 134.483 135.416 133.335C135.416 132.187 134.485 131.256 133.337 131.256C132.189 131.256 131.258 132.187 131.258 133.335C131.258 134.483 132.189 135.414 133.337 135.414Z" fill="white"/>
<path d="M177.782 135.414C178.93 135.414 179.861 134.483 179.861 133.335C179.861 132.187 178.93 131.256 177.782 131.256C176.634 131.256 175.703 132.187 175.703 133.335C175.703 134.483 176.634 135.414 177.782 135.414Z" fill="white"/>
<path d="M222.22 135.414C223.368 135.414 224.299 134.483 224.299 133.335C224.299 132.187 223.368 131.256 222.22 131.256C221.071 131.256 220.141 132.187 220.141 133.335C220.141 134.483 221.071 135.414 222.22 135.414Z" fill="white"/>
<path d="M266.665 135.414C267.813 135.414 268.744 134.483 268.744 133.335C268.744 132.187 267.813 131.256 266.665 131.256C265.517 131.256 264.586 132.187 264.586 133.335C264.586 134.483 265.517 135.414 266.665 135.414Z" fill="white"/>
<path d="M311.11 135.414C312.258 135.414 313.189 134.483 313.189 133.335C313.189 132.187 312.258 131.256 311.11 131.256C309.962 131.256 309.031 132.187 309.031 133.335C309.031 134.483 309.962 135.414 311.11 135.414Z" fill="white"/>
<path d="M355.556 135.414C356.704 135.414 357.634 134.483 357.634 133.335C357.634 132.187 356.704 131.256 355.556 131.256C354.407 131.256 353.477 132.187 353.477 133.335C353.477 134.483 354.407 135.414 355.556 135.414Z" fill="white"/>
<path d="M400.001 135.414C401.149 135.414 402.08 134.483 402.08 133.335C402.08 132.187 401.149 131.256 400.001 131.256C398.853 131.256 397.922 132.187 397.922 133.335C397.922 134.483 398.853 135.414 400.001 135.414Z" fill="white"/>
<path d="M444.446 135.414C445.594 135.414 446.525 134.483 446.525 133.335C446.525 132.187 445.594 131.256 444.446 131.256C443.298 131.256 442.367 132.187 442.367 133.335C442.367 134.483 443.298 135.414 444.446 135.414Z" fill="white"/>
<path d="M488.891 135.414C490.04 135.414 490.97 134.483 490.97 133.335C490.97 132.187 490.04 131.256 488.891 131.256C487.743 131.256 486.812 132.187 486.812 133.335C486.812 134.483 487.743 135.414 488.891 135.414Z" fill="white"/>
<path d="M533.337 135.414C534.485 135.414 535.416 134.483 535.416 133.335C535.416 132.187 534.485 131.256 533.337 131.256C532.189 131.256 531.258 132.187 531.258 133.335C531.258 134.483 532.189 135.414 533.337 135.414Z" fill="white"/>
<path d="M577.782 135.414C578.93 135.414 579.861 134.483 579.861 133.335C579.861 132.187 578.93 131.256 577.782 131.256C576.634 131.256 575.703 132.187 575.703 133.335C575.703 134.483 576.634 135.414 577.782 135.414Z" fill="white"/>
<path d="M622.22 135.414C623.368 135.414 624.299 134.483 624.299 133.335C624.299 132.187 623.368 131.256 622.22 131.256C621.071 131.256 620.141 132.187 620.141 133.335C620.141 134.483 621.071 135.414 622.22 135.414Z" fill="white"/>
<path d="M666.665 135.414C667.813 135.414 668.744 134.483 668.744 133.335C668.744 132.187 667.813 131.256 666.665 131.256C665.517 131.256 664.586 132.187 664.586 133.335C664.586 134.483 665.517 135.414 666.665 135.414Z" fill="white"/>
<path d="M711.11 135.414C712.258 135.414 713.189 134.483 713.189 133.335C713.189 132.187 712.258 131.256 711.11 131.256C709.962 131.256 709.031 132.187 709.031 133.335C709.031 134.483 709.962 135.414 711.11 135.414Z" fill="white"/>
<path d="M755.555 135.414C756.704 135.414 757.634 134.483 757.634 133.335C757.634 132.187 756.704 131.256 755.555 131.256C754.407 131.256 753.477 132.187 753.477 133.335C753.477 134.483 754.407 135.414 755.555 135.414Z" fill="white"/>
<path d="M800.001 135.414C801.149 135.414 802.08 134.483 802.08 133.335C802.08 132.187 801.149 131.256 800.001 131.256C798.853 131.256 797.922 132.187 797.922 133.335C797.922 134.483 798.853 135.414 800.001 135.414Z" fill="white"/>
<path d="M0.000822306 179.857C1.14899 179.857 2.07977 178.926 2.07977 177.778C2.07977 176.63 1.14899 175.699 0.000822306 175.699C-1.14735 175.699 -2.07812 176.63 -2.07812 177.778C-2.07812 178.926 -1.14735 179.857 0.000822306 179.857Z" fill="white"/>
<path d="M44.4461 179.857C45.5943 179.857 46.5251 178.926 46.5251 177.778C46.5251 176.63 45.5943 175.699 44.4461 175.699C43.298 175.699 42.3672 176.63 42.3672 177.778C42.3672 178.926 43.298 179.857 44.4461 179.857Z" fill="white"/>
<path d="M88.8914 179.857C90.0396 179.857 90.9704 178.926 90.9704 177.778C90.9704 176.63 90.0396 175.699 88.8914 175.699C87.7433 175.699 86.8125 176.63 86.8125 177.778C86.8125 178.926 87.7433 179.857 88.8914 179.857Z" fill="white"/>
<path d="M133.337 179.857C134.485 179.857 135.416 178.926 135.416 177.778C135.416 176.63 134.485 175.699 133.337 175.699C132.189 175.699 131.258 176.63 131.258 177.778C131.258 178.926 132.189 179.857 133.337 179.857Z" fill="white"/>
<path d="M177.782 179.857C178.93 179.857 179.861 178.926 179.861 177.778C179.861 176.63 178.93 175.699 177.782 175.699C176.634 175.699 175.703 176.63 175.703 177.778C175.703 178.926 176.634 179.857 177.782 179.857Z" fill="white"/>
<path d="M222.22 179.857C223.368 179.857 224.299 178.926 224.299 177.778C224.299 176.63 223.368 175.699 222.22 175.699C221.071 175.699 220.141 176.63 220.141 177.778C220.141 178.926 221.071 179.857 222.22 179.857Z" fill="white"/>
<path d="M266.665 179.857C267.813 179.857 268.744 178.926 268.744 177.778C268.744 176.63 267.813 175.699 266.665 175.699C265.517 175.699 264.586 176.63 264.586 177.778C264.586 178.926 265.517 179.857 266.665 179.857Z" fill="white"/>
<path d="M311.11 179.857C312.258 179.857 313.189 178.926 313.189 177.778C313.189 176.63 312.258 175.699 311.11 175.699C309.962 175.699 309.031 176.63 309.031 177.778C309.031 178.926 309.962 179.857 311.11 179.857Z" fill="white"/>
<path d="M355.556 179.857C356.704 179.857 357.634 178.926 357.634 177.778C357.634 176.63 356.704 175.699 355.556 175.699C354.407 175.699 353.477 176.63 353.477 177.778C353.477 178.926 354.407 179.857 355.556 179.857Z" fill="white"/>
<path d="M400.001 179.857C401.149 179.857 402.08 178.926 402.08 177.778C402.08 176.63 401.149 175.699 400.001 175.699C398.853 175.699 397.922 176.63 397.922 177.778C397.922 178.926 398.853 179.857 400.001 179.857Z" fill="white"/>
<path d="M444.446 179.857C445.594 179.857 446.525 178.926 446.525 177.778C446.525 176.63 445.594 175.699 444.446 175.699C443.298 175.699 442.367 176.63 442.367 177.778C442.367 178.926 443.298 179.857 444.446 179.857Z" fill="white"/>
<path d="M488.891 179.857C490.04 179.857 490.97 178.926 490.97 177.778C490.97 176.63 490.04 175.699 488.891 175.699C487.743 175.699 486.812 176.63 486.812 177.778C486.812 178.926 487.743 179.857 488.891 179.857Z" fill="white"/>
<path d="M533.337 179.857C534.485 179.857 535.416 178.926 535.416 177.778C535.416 176.63 534.485 175.699 533.337 175.699C532.189 175.699 531.258 176.63 531.258 177.778C531.258 178.926 532.189 179.857 533.337 179.857Z" fill="white"/>
<path d="M577.782 179.857C578.93 179.857 579.861 178.926 579.861 177.778C579.861 176.63 578.93 175.699 577.782 175.699C576.634 175.699 575.703 176.63 575.703 177.778C575.703 178.926 576.634 179.857 577.782 179.857Z" fill="white"/>
<path d="M622.22 179.857C623.368 179.857 624.299 178.926 624.299 177.778C624.299 176.63 623.368 175.699 622.22 175.699C621.071 175.699 620.141 176.63 620.141 177.778C620.141 178.926 621.071 179.857 622.22 179.857Z" fill="white"/>
<path d="M666.665 179.857C667.813 179.857 668.744 178.926 668.744 177.778C668.744 176.63 667.813 175.699 666.665 175.699C665.517 175.699 664.586 176.63 664.586 177.778C664.586 178.926 665.517 179.857 666.665 179.857Z" fill="white"/>
<path d="M711.11 179.857C712.258 179.857 713.189 178.926 713.189 177.778C713.189 176.63 712.258 175.699 711.11 175.699C709.962 175.699 709.031 176.63 709.031 177.778C709.031 178.926 709.962 179.857 711.11 179.857Z" fill="white"/>
<path d="M755.555 179.857C756.704 179.857 757.634 178.926 757.634 177.778C757.634 176.63 756.704 175.699 755.555 175.699C754.407 175.699 753.477 176.63 753.477 177.778C753.477 178.926 754.407 179.857 755.555 179.857Z" fill="white"/>
<path d="M800.001 179.857C801.149 179.857 802.08 178.926 802.08 177.778C802.08 176.63 801.149 175.699 800.001 175.699C798.853 175.699 797.922 176.63 797.922 177.778C797.922 178.926 798.853 179.857 800.001 179.857Z" fill="white"/>
<path d="M0.000822306 224.302C1.14899 224.302 2.07977 223.372 2.07977 222.223C2.07977 221.075 1.14899 220.145 0.000822306 220.145C-1.14735 220.145 -2.07812 221.075 -2.07812 222.223C-2.07812 223.372 -1.14735 224.302 0.000822306 224.302Z" fill="white"/>
<path d="M44.4461 224.302C45.5943 224.302 46.5251 223.372 46.5251 222.223C46.5251 221.075 45.5943 220.145 44.4461 220.145C43.298 220.145 42.3672 221.075 42.3672 222.223C42.3672 223.372 43.298 224.302 44.4461 224.302Z" fill="white"/>
<path d="M88.8914 224.302C90.0396 224.302 90.9704 223.372 90.9704 222.223C90.9704 221.075 90.0396 220.145 88.8914 220.145C87.7433 220.145 86.8125 221.075 86.8125 222.223C86.8125 223.372 87.7433 224.302 88.8914 224.302Z" fill="white"/>
<path d="M133.337 224.302C134.485 224.302 135.416 223.372 135.416 222.223C135.416 221.075 134.485 220.145 133.337 220.145C132.189 220.145 131.258 221.075 131.258 222.223C131.258 223.372 132.189 224.302 133.337 224.302Z" fill="white"/>
<path d="M177.782 224.302C178.93 224.302 179.861 223.372 179.861 222.223C179.861 221.075 178.93 220.145 177.782 220.145C176.634 220.145 175.703 221.075 175.703 222.223C175.703 223.372 176.634 224.302 177.782 224.302Z" fill="white"/>
<path d="M222.22 224.302C223.368 224.302 224.299 223.372 224.299 222.223C224.299 221.075 223.368 220.145 222.22 220.145C221.071 220.145 220.141 221.075 220.141 222.223C220.141 223.372 221.071 224.302 222.22 224.302Z" fill="white"/>
<path d="M266.665 224.302C267.813 224.302 268.744 223.372 268.744 222.223C268.744 221.075 267.813 220.145 266.665 220.145C265.517 220.145 264.586 221.075 264.586 222.223C264.586 223.372 265.517 224.302 266.665 224.302Z" fill="white"/>
<path d="M311.11 224.302C312.258 224.302 313.189 223.372 313.189 222.223C313.189 221.075 312.258 220.145 311.11 220.145C309.962 220.145 309.031 221.075 309.031 222.223C309.031 223.372 309.962 224.302 311.11 224.302Z" fill="white"/>
<path d="M355.556 224.302C356.704 224.302 357.634 223.372 357.634 222.223C357.634 221.075 356.704 220.145 355.556 220.145C354.407 220.145 353.477 221.075 353.477 222.223C353.477 223.372 354.407 224.302 355.556 224.302Z" fill="white"/>
<path d="M400.001 224.302C401.149 224.302 402.08 223.372 402.08 222.223C402.08 221.075 401.149 220.145 400.001 220.145C398.853 220.145 397.922 221.075 397.922 222.223C397.922 223.372 398.853 224.302 400.001 224.302Z" fill="white"/>
<path d="M444.446 224.302C445.594 224.302 446.525 223.372 446.525 222.223C446.525 221.075 445.594 220.145 444.446 220.145C443.298 220.145 442.367 221.075 442.367 222.223C442.367 223.372 443.298 224.302 444.446 224.302Z" fill="white"/>
<path d="M488.891 224.302C490.04 224.302 490.97 223.372 490.97 222.223C490.97 221.075 490.04 220.145 488.891 220.145C487.743 220.145 486.812 221.075 486.812 222.223C486.812 223.372 487.743 224.302 488.891 224.302Z" fill="white"/>
<path d="M533.337 224.302C534.485 224.302 535.416 223.372 535.416 222.223C535.416 221.075 534.485 220.145 533.337 220.145C532.189 220.145 531.258 221.075 531.258 222.223C531.258 223.372 532.189 224.302 533.337 224.302Z" fill="white"/>
<path d="M577.782 224.302C578.93 224.302 579.861 223.372 579.861 222.223C579.861 221.075 578.93 220.145 577.782 220.145C576.634 220.145 575.703 221.075 575.703 222.223C575.703 223.372 576.634 224.302 577.782 224.302Z" fill="white"/>
<path d="M622.22 224.302C623.368 224.302 624.299 223.372 624.299 222.223C624.299 221.075 623.368 220.145 622.22 220.145C621.071 220.145 620.141 221.075 620.141 222.223C620.141 223.372 621.071 224.302 622.22 224.302Z" fill="white"/>
<path d="M666.665 224.302C667.813 224.302 668.744 223.372 668.744 222.223C668.744 221.075 667.813 220.145 666.665 220.145C665.517 220.145 664.586 221.075 664.586 222.223C664.586 223.372 665.517 224.302 666.665 224.302Z" fill="white"/>
<path d="M711.11 224.302C712.258 224.302 713.189 223.372 713.189 222.223C713.189 221.075 712.258 220.145 711.11 220.145C709.962 220.145 709.031 221.075 709.031 222.223C709.031 223.372 709.962 224.302 711.11 224.302Z" fill="white"/>
<path d="M755.555 224.302C756.704 224.302 757.634 223.372 757.634 222.223C757.634 221.075 756.704 220.145 755.555 220.145C754.407 220.145 753.477 221.075 753.477 222.223C753.477 223.372 754.407 224.302 755.555 224.302Z" fill="white"/>
<path d="M800.001 224.302C801.149 224.302 802.08 223.372 802.08 222.223C802.08 221.075 801.149 220.145 800.001 220.145C798.853 220.145 797.922 221.075 797.922 222.223C797.922 223.372 798.853 224.302 800.001 224.302Z" fill="white"/>
<path d="M0.000822306 268.746C1.14899 268.746 2.07977 267.815 2.07977 266.667C2.07977 265.519 1.14899 264.588 0.000822306 264.588C-1.14735 264.588 -2.07812 265.519 -2.07812 266.667C-2.07812 267.815 -1.14735 268.746 0.000822306 268.746Z" fill="white"/>
<path d="M44.4461 268.746C45.5943 268.746 46.5251 267.815 46.5251 266.667C46.5251 265.519 45.5943 264.588 44.4461 264.588C43.298 264.588 42.3672 265.519 42.3672 266.667C42.3672 267.815 43.298 268.746 44.4461 268.746Z" fill="white"/>
<path d="M88.8914 268.746C90.0396 268.746 90.9704 267.815 90.9704 266.667C90.9704 265.519 90.0396 264.588 88.8914 264.588C87.7433 264.588 86.8125 265.519 86.8125 266.667C86.8125 267.815 87.7433 268.746 88.8914 268.746Z" fill="white"/>
<path d="M133.337 268.746C134.485 268.746 135.416 267.815 135.416 266.667C135.416 265.519 134.485 264.588 133.337 264.588C132.189 264.588 131.258 265.519 131.258 266.667C131.258 267.815 132.189 268.746 133.337 268.746Z" fill="white"/>
<path d="M177.782 268.746C178.93 268.746 179.861 267.815 179.861 266.667C179.861 265.519 178.93 264.588 177.782 264.588C176.634 264.588 175.703 265.519 175.703 266.667C175.703 267.815 176.634 268.746 177.782 268.746Z" fill="white"/>
<path d="M222.22 268.746C223.368 268.746 224.299 267.815 224.299 266.667C224.299 265.519 223.368 264.588 222.22 264.588C221.071 264.588 220.141 265.519 220.141 266.667C220.141 267.815 221.071 268.746 222.22 268.746Z" fill="white"/>
<path d="M266.665 268.746C267.813 268.746 268.744 267.815 268.744 266.667C268.744 265.519 267.813 264.588 266.665 264.588C265.517 264.588 264.586 265.519 264.586 266.667C264.586 267.815 265.517 268.746 266.665 268.746Z" fill="white"/>
<path d="M311.11 268.746C312.258 268.746 313.189 267.815 313.189 266.667C313.189 265.519 312.258 264.588 311.11 264.588C309.962 264.588 309.031 265.519 309.031 266.667C309.031 267.815 309.962 268.746 311.11 268.746Z" fill="white"/>
<path d="M355.556 268.746C356.704 268.746 357.634 267.815 357.634 266.667C357.634 265.519 356.704 264.588 355.556 264.588C354.407 264.588 353.477 265.519 353.477 266.667C353.477 267.815 354.407 268.746 355.556 268.746Z" fill="white"/>
<path d="M400.001 268.746C401.149 268.746 402.08 267.815 402.08 266.667C402.08 265.519 401.149 264.588 400.001 264.588C398.853 264.588 397.922 265.519 397.922 266.667C397.922 267.815 398.853 268.746 400.001 268.746Z" fill="white"/>
<path d="M444.446 268.746C445.594 268.746 446.525 267.815 446.525 266.667C446.525 265.519 445.594 264.588 444.446 264.588C443.298 264.588 442.367 265.519 442.367 266.667C442.367 267.815 443.298 268.746 444.446 268.746Z" fill="white"/>
<path d="M488.891 268.746C490.04 268.746 490.97 267.815 490.97 266.667C490.97 265.519 490.04 264.588 488.891 264.588C487.743 264.588 486.812 265.519 486.812 266.667C486.812 267.815 487.743 268.746 488.891 268.746Z" fill="white"/>
<path d="M533.337 268.746C534.485 268.746 535.416 267.815 535.416 266.667C535.416 265.519 534.485 264.588 533.337 264.588C532.189 264.588 531.258 265.519 531.258 266.667C531.258 267.815 532.189 268.746 533.337 268.746Z" fill="white"/>
<path d="M577.782 268.746C578.93 268.746 579.861 267.815 579.861 266.667C579.861 265.519 578.93 264.588 577.782 264.588C576.634 264.588 575.703 265.519 575.703 266.667C575.703 267.815 576.634 268.746 577.782 268.746Z" fill="white"/>
<path d="M622.22 268.746C623.368 268.746 624.299 267.815 624.299 266.667C624.299 265.519 623.368 264.588 622.22 264.588C621.071 264.588 620.141 265.519 620.141 266.667C620.141 267.815 621.071 268.746 622.22 268.746Z" fill="white"/>
<path d="M666.665 268.746C667.813 268.746 668.744 267.815 668.744 266.667C668.744 265.519 667.813 264.588 666.665 264.588C665.517 264.588 664.586 265.519 664.586 266.667C664.586 267.815 665.517 268.746 666.665 268.746Z" fill="white"/>
<path d="M711.11 268.746C712.258 268.746 713.189 267.815 713.189 266.667C713.189 265.519 712.258 264.588 711.11 264.588C709.962 264.588 709.031 265.519 709.031 266.667C709.031 267.815 709.962 268.746 711.11 268.746Z" fill="white"/>
<path d="M755.555 268.746C756.704 268.746 757.634 267.815 757.634 266.667C757.634 265.519 756.704 264.588 755.555 264.588C754.407 264.588 753.477 265.519 753.477 266.667C753.477 267.815 754.407 268.746 755.555 268.746Z" fill="white"/>
<path d="M800.001 268.746C801.149 268.746 802.08 267.815 802.08 266.667C802.08 265.519 801.149 264.588 800.001 264.588C798.853 264.588 797.922 265.519 797.922 266.667C797.922 267.815 798.853 268.746 800.001 268.746Z" fill="white"/>
<path d="M0.000822306 313.191C1.14899 313.191 2.07977 312.26 2.07977 311.112C2.07977 309.964 1.14899 309.033 0.000822306 309.033C-1.14735 309.033 -2.07812 309.964 -2.07812 311.112C-2.07812 312.26 -1.14735 313.191 0.000822306 313.191Z" fill="white"/>
<path d="M44.4461 313.191C45.5943 313.191 46.5251 312.26 46.5251 311.112C46.5251 309.964 45.5943 309.033 44.4461 309.033C43.298 309.033 42.3672 309.964 42.3672 311.112C42.3672 312.26 43.298 313.191 44.4461 313.191Z" fill="white"/>
<path d="M88.8914 313.191C90.0396 313.191 90.9704 312.26 90.9704 311.112C90.9704 309.964 90.0396 309.033 88.8914 309.033C87.7433 309.033 86.8125 309.964 86.8125 311.112C86.8125 312.26 87.7433 313.191 88.8914 313.191Z" fill="white"/>
<path d="M133.337 313.191C134.485 313.191 135.416 312.26 135.416 311.112C135.416 309.964 134.485 309.033 133.337 309.033C132.189 309.033 131.258 309.964 131.258 311.112C131.258 312.26 132.189 313.191 133.337 313.191Z" fill="white"/>
<path d="M177.782 313.191C178.93 313.191 179.861 312.26 179.861 311.112C179.861 309.964 178.93 309.033 177.782 309.033C176.634 309.033 175.703 309.964 175.703 311.112C175.703 312.26 176.634 313.191 177.782 313.191Z" fill="white"/>
<path d="M222.22 313.191C223.368 313.191 224.299 312.26 224.299 311.112C224.299 309.964 223.368 309.033 222.22 309.033C221.071 309.033 220.141 309.964 220.141 311.112C220.141 312.26 221.071 313.191 222.22 313.191Z" fill="white"/>
<path d="M266.665 313.191C267.813 313.191 268.744 312.26 268.744 311.112C268.744 309.964 267.813 309.033 266.665 309.033C265.517 309.033 264.586 309.964 264.586 311.112C264.586 312.26 265.517 313.191 266.665 313.191Z" fill="white"/>
<path d="M311.11 313.191C312.258 313.191 313.189 312.26 313.189 311.112C313.189 309.964 312.258 309.033 311.11 309.033C309.962 309.033 309.031 309.964 309.031 311.112C309.031 312.26 309.962 313.191 311.11 313.191Z" fill="white"/>
<path d="M355.556 313.191C356.704 313.191 357.634 312.26 357.634 311.112C357.634 309.964 356.704 309.033 355.556 309.033C354.407 309.033 353.477 309.964 353.477 311.112C353.477 312.26 354.407 313.191 355.556 313.191Z" fill="white"/>
<path d="M400.001 313.191C401.149 313.191 402.08 312.26 402.08 311.112C402.08 309.964 401.149 309.033 400.001 309.033C398.853 309.033 397.922 309.964 397.922 311.112C397.922 312.26 398.853 313.191 400.001 313.191Z" fill="white"/>
<path d="M444.446 313.191C445.594 313.191 446.525 312.26 446.525 311.112C446.525 309.964 445.594 309.033 444.446 309.033C443.298 309.033 442.367 309.964 442.367 311.112C442.367 312.26 443.298 313.191 444.446 313.191Z" fill="white"/>
<path d="M488.891 313.191C490.04 313.191 490.97 312.26 490.97 311.112C490.97 309.964 490.04 309.033 488.891 309.033C487.743 309.033 486.812 309.964 486.812 311.112C486.812 312.26 487.743 313.191 488.891 313.191Z" fill="white"/>
<path d="M533.337 313.191C534.485 313.191 535.416 312.26 535.416 311.112C535.416 309.964 534.485 309.033 533.337 309.033C532.189 309.033 531.258 309.964 531.258 311.112C531.258 312.26 532.189 313.191 533.337 313.191Z" fill="white"/>
<path d="M577.782 313.191C578.93 313.191 579.861 312.26 579.861 311.112C579.861 309.964 578.93 309.033 577.782 309.033C576.634 309.033 575.703 309.964 575.703 311.112C575.703 312.26 576.634 313.191 577.782 313.191Z" fill="white"/>
<path d="M622.22 313.191C623.368 313.191 624.299 312.26 624.299 311.112C624.299 309.964 623.368 309.033 622.22 309.033C621.071 309.033 620.141 309.964 620.141 311.112C620.141 312.26 621.071 313.191 622.22 313.191Z" fill="white"/>
<path d="M666.665 313.191C667.813 313.191 668.744 312.26 668.744 311.112C668.744 309.964 667.813 309.033 666.665 309.033C665.517 309.033 664.586 309.964 664.586 311.112C664.586 312.26 665.517 313.191 666.665 313.191Z" fill="white"/>
<path d="M711.11 313.191C712.258 313.191 713.189 312.26 713.189 311.112C713.189 309.964 712.258 309.033 711.11 309.033C709.962 309.033 709.031 309.964 709.031 311.112C709.031 312.26 709.962 313.191 711.11 313.191Z" fill="white"/>
<path d="M755.555 313.191C756.704 313.191 757.634 312.26 757.634 311.112C757.634 309.964 756.704 309.033 755.555 309.033C754.407 309.033 753.477 309.964 753.477 311.112C753.477 312.26 754.407 313.191 755.555 313.191Z" fill="white"/>
<path d="M800.001 313.191C801.149 313.191 802.08 312.26 802.08 311.112C802.08 309.964 801.149 309.033 800.001 309.033C798.853 309.033 797.922 309.964 797.922 311.112C797.922 312.26 798.853 313.191 800.001 313.191Z" fill="white"/>
<path d="M0.000822306 357.634C1.14899 357.634 2.07977 356.704 2.07977 355.556C2.07977 354.407 1.14899 353.477 0.000822306 353.477C-1.14735 353.477 -2.07812 354.407 -2.07812 355.556C-2.07812 356.704 -1.14735 357.634 0.000822306 357.634Z" fill="white"/>
<path d="M44.4461 357.634C45.5943 357.634 46.5251 356.704 46.5251 355.556C46.5251 354.407 45.5943 353.477 44.4461 353.477C43.298 353.477 42.3672 354.407 42.3672 355.556C42.3672 356.704 43.298 357.634 44.4461 357.634Z" fill="white"/>
<path d="M88.8914 357.634C90.0396 357.634 90.9704 356.704 90.9704 355.556C90.9704 354.407 90.0396 353.477 88.8914 353.477C87.7433 353.477 86.8125 354.407 86.8125 355.556C86.8125 356.704 87.7433 357.634 88.8914 357.634Z" fill="white"/>
<path d="M133.337 357.634C134.485 357.634 135.416 356.704 135.416 355.556C135.416 354.407 134.485 353.477 133.337 353.477C132.189 353.477 131.258 354.407 131.258 355.556C131.258 356.704 132.189 357.634 133.337 357.634Z" fill="white"/>
<path d="M177.782 357.634C178.93 357.634 179.861 356.704 179.861 355.556C179.861 354.407 178.93 353.477 177.782 353.477C176.634 353.477 175.703 354.407 175.703 355.556C175.703 356.704 176.634 357.634 177.782 357.634Z" fill="white"/>
<path d="M222.22 357.634C223.368 357.634 224.299 356.704 224.299 355.556C224.299 354.407 223.368 353.477 222.22 353.477C221.071 353.477 220.141 354.407 220.141 355.556C220.141 356.704 221.071 357.634 222.22 357.634Z" fill="white"/>
<path d="M266.665 357.634C267.813 357.634 268.744 356.704 268.744 355.556C268.744 354.407 267.813 353.477 266.665 353.477C265.517 353.477 264.586 354.407 264.586 355.556C264.586 356.704 265.517 357.634 266.665 357.634Z" fill="white"/>
<path d="M311.11 357.634C312.258 357.634 313.189 356.704 313.189 355.556C313.189 354.407 312.258 353.477 311.11 353.477C309.962 353.477 309.031 354.407 309.031 355.556C309.031 356.704 309.962 357.634 311.11 357.634Z" fill="white"/>
<path d="M355.556 357.634C356.704 357.634 357.634 356.704 357.634 355.556C357.634 354.407 356.704 353.477 355.556 353.477C354.407 353.477 353.477 354.407 353.477 355.556C353.477 356.704 354.407 357.634 355.556 357.634Z" fill="white"/>
<path d="M400.001 357.634C401.149 357.634 402.08 356.704 402.08 355.556C402.08 354.407 401.149 353.477 400.001 353.477C398.853 353.477 397.922 354.407 397.922 355.556C397.922 356.704 398.853 357.634 400.001 357.634Z" fill="white"/>
<path d="M444.446 357.634C445.594 357.634 446.525 356.704 446.525 355.556C446.525 354.407 445.594 353.477 444.446 353.477C443.298 353.477 442.367 354.407 442.367 355.556C442.367 356.704 443.298 357.634 444.446 357.634Z" fill="white"/>
<path d="M488.891 357.634C490.04 357.634 490.97 356.704 490.97 355.556C490.97 354.407 490.04 353.477 488.891 353.477C487.743 353.477 486.812 354.407 486.812 355.556C486.812 356.704 487.743 357.634 488.891 357.634Z" fill="white"/>
<path d="M533.337 357.634C534.485 357.634 535.416 356.704 535.416 355.556C535.416 354.407 534.485 353.477 533.337 353.477C532.189 353.477 531.258 354.407 531.258 355.556C531.258 356.704 532.189 357.634 533.337 357.634Z" fill="white"/>
<path d="M577.782 357.634C578.93 357.634 579.861 356.704 579.861 355.556C579.861 354.407 578.93 353.477 577.782 353.477C576.634 353.477 575.703 354.407 575.703 355.556C575.703 356.704 576.634 357.634 577.782 357.634Z" fill="white"/>
<path d="M622.22 357.634C623.368 357.634 624.299 356.704 624.299 355.556C624.299 354.407 623.368 353.477 622.22 353.477C621.071 353.477 620.141 354.407 620.141 355.556C620.141 356.704 621.071 357.634 622.22 357.634Z" fill="white"/>
<path d="M666.665 357.634C667.813 357.634 668.744 356.704 668.744 355.556C668.744 354.407 667.813 353.477 666.665 353.477C665.517 353.477 664.586 354.407 664.586 355.556C664.586 356.704 665.517 357.634 666.665 357.634Z" fill="white"/>
<path d="M711.11 357.634C712.258 357.634 713.189 356.704 713.189 355.556C713.189 354.407 712.258 353.477 711.11 353.477C709.962 353.477 709.031 354.407 709.031 355.556C709.031 356.704 709.962 357.634 711.11 357.634Z" fill="white"/>
<path d="M755.555 357.634C756.704 357.634 757.634 356.704 757.634 355.556C757.634 354.407 756.704 353.477 755.555 353.477C754.407 353.477 753.477 354.407 753.477 355.556C753.477 356.704 754.407 357.634 755.555 357.634Z" fill="white"/>
<path d="M800.001 357.634C801.149 357.634 802.08 356.704 802.08 355.556C802.08 354.407 801.149 353.477 800.001 353.477C798.853 353.477 797.922 354.407 797.922 355.556C797.922 356.704 798.853 357.634 800.001 357.634Z" fill="white"/>
<path d="M0.000822306 402.08C1.14899 402.08 2.07977 401.149 2.07977 400.001C2.07977 398.853 1.14899 397.922 0.000822306 397.922C-1.14735 397.922 -2.07812 398.853 -2.07812 400.001C-2.07812 401.149 -1.14735 402.08 0.000822306 402.08Z" fill="white"/>
<path d="M44.4461 402.08C45.5943 402.08 46.5251 401.149 46.5251 400.001C46.5251 398.853 45.5943 397.922 44.4461 397.922C43.298 397.922 42.3672 398.853 42.3672 400.001C42.3672 401.149 43.298 402.08 44.4461 402.08Z" fill="white"/>
<path d="M88.8914 402.08C90.0396 402.08 90.9704 401.149 90.9704 400.001C90.9704 398.853 90.0396 397.922 88.8914 397.922C87.7433 397.922 86.8125 398.853 86.8125 400.001C86.8125 401.149 87.7433 402.08 88.8914 402.08Z" fill="white"/>
<path d="M133.337 402.08C134.485 402.08 135.416 401.149 135.416 400.001C135.416 398.853 134.485 397.922 133.337 397.922C132.189 397.922 131.258 398.853 131.258 400.001C131.258 401.149 132.189 402.08 133.337 402.08Z" fill="white"/>
<path d="M177.782 402.08C178.93 402.08 179.861 401.149 179.861 400.001C179.861 398.853 178.93 397.922 177.782 397.922C176.634 397.922 175.703 398.853 175.703 400.001C175.703 401.149 176.634 402.08 177.782 402.08Z" fill="white"/>
<path d="M222.22 402.08C223.368 402.08 224.299 401.149 224.299 400.001C224.299 398.853 223.368 397.922 222.22 397.922C221.071 397.922 220.141 398.853 220.141 400.001C220.141 401.149 221.071 402.08 222.22 402.08Z" fill="white"/>
<path d="M266.665 402.08C267.813 402.08 268.744 401.149 268.744 400.001C268.744 398.853 267.813 397.922 266.665 397.922C265.517 397.922 264.586 398.853 264.586 400.001C264.586 401.149 265.517 402.08 266.665 402.08Z" fill="white"/>
<path d="M311.11 402.08C312.258 402.08 313.189 401.149 313.189 400.001C313.189 398.853 312.258 397.922 311.11 397.922C309.962 397.922 309.031 398.853 309.031 400.001C309.031 401.149 309.962 402.08 311.11 402.08Z" fill="white"/>
<path d="M355.556 402.08C356.704 402.08 357.634 401.149 357.634 400.001C357.634 398.853 356.704 397.922 355.556 397.922C354.407 397.922 353.477 398.853 353.477 400.001C353.477 401.149 354.407 402.08 355.556 402.08Z" fill="white"/>
<path d="M400.001 402.08C401.149 402.08 402.08 401.149 402.08 400.001C402.08 398.853 401.149 397.922 400.001 397.922C398.853 397.922 397.922 398.853 397.922 400.001C397.922 401.149 398.853 402.08 400.001 402.08Z" fill="white"/>
<path d="M444.446 402.08C445.594 402.08 446.525 401.149 446.525 400.001C446.525 398.853 445.594 397.922 444.446 397.922C443.298 397.922 442.367 398.853 442.367 400.001C442.367 401.149 443.298 402.08 444.446 402.08Z" fill="white"/>
<path d="M488.891 402.08C490.04 402.08 490.97 401.149 490.97 400.001C490.97 398.853 490.04 397.922 488.891 397.922C487.743 397.922 486.812 398.853 486.812 400.001C486.812 401.149 487.743 402.08 488.891 402.08Z" fill="white"/>
<path d="M533.337 402.08C534.485 402.08 535.416 401.149 535.416 400.001C535.416 398.853 534.485 397.922 533.337 397.922C532.189 397.922 531.258 398.853 531.258 400.001C531.258 401.149 532.189 402.08 533.337 402.08Z" fill="white"/>
<path d="M577.782 402.08C578.93 402.08 579.861 401.149 579.861 400.001C579.861 398.853 578.93 397.922 577.782 397.922C576.634 397.922 575.703 398.853 575.703 400.001C575.703 401.149 576.634 402.08 577.782 402.08Z" fill="white"/>
<path d="M622.22 402.08C623.368 402.08 624.299 401.149 624.299 400.001C624.299 398.853 623.368 397.922 622.22 397.922C621.071 397.922 620.141 398.853 620.141 400.001C620.141 401.149 621.071 402.08 622.22 402.08Z" fill="white"/>
<path d="M666.665 402.08C667.813 402.08 668.744 401.149 668.744 400.001C668.744 398.853 667.813 397.922 666.665 397.922C665.517 397.922 664.586 398.853 664.586 400.001C664.586 401.149 665.517 402.08 666.665 402.08Z" fill="white"/>
<path d="M711.11 402.08C712.258 402.08 713.189 401.149 713.189 400.001C713.189 398.853 712.258 397.922 711.11 397.922C709.962 397.922 709.031 398.853 709.031 400.001C709.031 401.149 709.962 402.08 711.11 402.08Z" fill="white"/>
<path d="M755.555 402.08C756.704 402.08 757.634 401.149 757.634 400.001C757.634 398.853 756.704 397.922 755.555 397.922C754.407 397.922 753.477 398.853 753.477 400.001C753.477 401.149 754.407 402.08 755.555 402.08Z" fill="white"/>
<path d="M800.001 402.08C801.149 402.08 802.08 401.149 802.08 400.001C802.08 398.853 801.149 397.922 800.001 397.922C798.853 397.922 797.922 398.853 797.922 400.001C797.922 401.149 798.853 402.08 800.001 402.08Z" fill="white"/>
<path d="M0.000822306 446.525C1.14899 446.525 2.07977 445.594 2.07977 444.446C2.07977 443.298 1.14899 442.367 0.000822306 442.367C-1.14735 442.367 -2.07812 443.298 -2.07812 444.446C-2.07812 445.594 -1.14735 446.525 0.000822306 446.525Z" fill="white"/>
<path d="M44.4461 446.525C45.5943 446.525 46.5251 445.594 46.5251 444.446C46.5251 443.298 45.5943 442.367 44.4461 442.367C43.298 442.367 42.3672 443.298 42.3672 444.446C42.3672 445.594 43.298 446.525 44.4461 446.525Z" fill="white"/>
<path d="M88.8914 446.525C90.0396 446.525 90.9704 445.594 90.9704 444.446C90.9704 443.298 90.0396 442.367 88.8914 442.367C87.7433 442.367 86.8125 443.298 86.8125 444.446C86.8125 445.594 87.7433 446.525 88.8914 446.525Z" fill="white"/>
<path d="M133.337 446.525C134.485 446.525 135.416 445.594 135.416 444.446C135.416 443.298 134.485 442.367 133.337 442.367C132.189 442.367 131.258 443.298 131.258 444.446C131.258 445.594 132.189 446.525 133.337 446.525Z" fill="white"/>
<path d="M177.782 446.525C178.93 446.525 179.861 445.594 179.861 444.446C179.861 443.298 178.93 442.367 177.782 442.367C176.634 442.367 175.703 443.298 175.703 444.446C175.703 445.594 176.634 446.525 177.782 446.525Z" fill="white"/>
<path d="M222.22 446.525C223.368 446.525 224.299 445.594 224.299 444.446C224.299 443.298 223.368 442.367 222.22 442.367C221.071 442.367 220.141 443.298 220.141 444.446C220.141 445.594 221.071 446.525 222.22 446.525Z" fill="white"/>
<path d="M266.665 446.525C267.813 446.525 268.744 445.594 268.744 444.446C268.744 443.298 267.813 442.367 266.665 442.367C265.517 442.367 264.586 443.298 264.586 444.446C264.586 445.594 265.517 446.525 266.665 446.525Z" fill="white"/>
<path d="M311.11 446.525C312.258 446.525 313.189 445.594 313.189 444.446C313.189 443.298 312.258 442.367 311.11 442.367C309.962 442.367 309.031 443.298 309.031 444.446C309.031 445.594 309.962 446.525 311.11 446.525Z" fill="white"/>
<path d="M355.556 446.525C356.704 446.525 357.634 445.594 357.634 444.446C357.634 443.298 356.704 442.367 355.556 442.367C354.407 442.367 353.477 443.298 353.477 444.446C353.477 445.594 354.407 446.525 355.556 446.525Z" fill="white"/>
<path d="M400.001 446.525C401.149 446.525 402.08 445.594 402.08 444.446C402.08 443.298 401.149 442.367 400.001 442.367C398.853 442.367 397.922 443.298 397.922 444.446C397.922 445.594 398.853 446.525 400.001 446.525Z" fill="white"/>
<path d="M444.446 446.525C445.594 446.525 446.525 445.594 446.525 444.446C446.525 443.298 445.594 442.367 444.446 442.367C443.298 442.367 442.367 443.298 442.367 444.446C442.367 445.594 443.298 446.525 444.446 446.525Z" fill="white"/>
<path d="M488.891 446.525C490.04 446.525 490.97 445.594 490.97 444.446C490.97 443.298 490.04 442.367 488.891 442.367C487.743 442.367 486.812 443.298 486.812 444.446C486.812 445.594 487.743 446.525 488.891 446.525Z" fill="white"/>
<path d="M533.337 446.525C534.485 446.525 535.416 445.594 535.416 444.446C535.416 443.298 534.485 442.367 533.337 442.367C532.189 442.367 531.258 443.298 531.258 444.446C531.258 445.594 532.189 446.525 533.337 446.525Z" fill="white"/>
<path d="M577.782 446.525C578.93 446.525 579.861 445.594 579.861 444.446C579.861 443.298 578.93 442.367 577.782 442.367C576.634 442.367 575.703 443.298 575.703 444.446C575.703 445.594 576.634 446.525 577.782 446.525Z" fill="white"/>
<path d="M622.22 446.525C623.368 446.525 624.299 445.594 624.299 444.446C624.299 443.298 623.368 442.367 622.22 442.367C621.071 442.367 620.141 443.298 620.141 444.446C620.141 445.594 621.071 446.525 622.22 446.525Z" fill="white"/>
<path d="M666.665 446.525C667.813 446.525 668.744 445.594 668.744 444.446C668.744 443.298 667.813 442.367 666.665 442.367C665.517 442.367 664.586 443.298 664.586 444.446C664.586 445.594 665.517 446.525 666.665 446.525Z" fill="white"/>
<path d="M711.11 446.525C712.258 446.525 713.189 445.594 713.189 444.446C713.189 443.298 712.258 442.367 711.11 442.367C709.962 442.367 709.031 443.298 709.031 444.446C709.031 445.594 709.962 446.525 711.11 446.525Z" fill="white"/>
<path d="M755.555 446.525C756.704 446.525 757.634 445.594 757.634 444.446C757.634 443.298 756.704 442.367 755.555 442.367C754.407 442.367 753.477 443.298 753.477 444.446C753.477 445.594 754.407 446.525 755.555 446.525Z" fill="white"/>
<path d="M800.001 446.525C801.149 446.525 802.08 445.594 802.08 444.446C802.08 443.298 801.149 442.367 800.001 442.367C798.853 442.367 797.922 443.298 797.922 444.446C797.922 445.594 798.853 446.525 800.001 446.525Z" fill="white"/>
<path d="M0.000822306 490.968C1.14899 490.968 2.07977 490.038 2.07977 488.889C2.07977 487.741 1.14899 486.811 0.000822306 486.811C-1.14735 486.811 -2.07812 487.741 -2.07812 488.889C-2.07812 490.038 -1.14735 490.968 0.000822306 490.968Z" fill="white"/>
<path d="M44.4461 490.968C45.5943 490.968 46.5251 490.038 46.5251 488.889C46.5251 487.741 45.5943 486.811 44.4461 486.811C43.298 486.811 42.3672 487.741 42.3672 488.889C42.3672 490.038 43.298 490.968 44.4461 490.968Z" fill="white"/>
<path d="M88.8914 490.968C90.0396 490.968 90.9704 490.038 90.9704 488.889C90.9704 487.741 90.0396 486.811 88.8914 486.811C87.7433 486.811 86.8125 487.741 86.8125 488.889C86.8125 490.038 87.7433 490.968 88.8914 490.968Z" fill="white"/>
<path d="M133.337 490.968C134.485 490.968 135.416 490.038 135.416 488.889C135.416 487.741 134.485 486.811 133.337 486.811C132.189 486.811 131.258 487.741 131.258 488.889C131.258 490.038 132.189 490.968 133.337 490.968Z" fill="white"/>
<path d="M177.782 490.968C178.93 490.968 179.861 490.038 179.861 488.889C179.861 487.741 178.93 486.811 177.782 486.811C176.634 486.811 175.703 487.741 175.703 488.889C175.703 490.038 176.634 490.968 177.782 490.968Z" fill="white"/>
<path d="M222.22 490.968C223.368 490.968 224.299 490.038 224.299 488.889C224.299 487.741 223.368 486.811 222.22 486.811C221.071 486.811 220.141 487.741 220.141 488.889C220.141 490.038 221.071 490.968 222.22 490.968Z" fill="white"/>
<path d="M266.665 490.968C267.813 490.968 268.744 490.038 268.744 488.889C268.744 487.741 267.813 486.811 266.665 486.811C265.517 486.811 264.586 487.741 264.586 488.889C264.586 490.038 265.517 490.968 266.665 490.968Z" fill="white"/>
<path d="M311.11 490.968C312.258 490.968 313.189 490.038 313.189 488.889C313.189 487.741 312.258 486.811 311.11 486.811C309.962 486.811 309.031 487.741 309.031 488.889C309.031 490.038 309.962 490.968 311.11 490.968Z" fill="white"/>
<path d="M355.556 490.968C356.704 490.968 357.634 490.038 357.634 488.889C357.634 487.741 356.704 486.811 355.556 486.811C354.407 486.811 353.477 487.741 353.477 488.889C353.477 490.038 354.407 490.968 355.556 490.968Z" fill="white"/>
<path d="M400.001 490.968C401.149 490.968 402.08 490.038 402.08 488.889C402.08 487.741 401.149 486.811 400.001 486.811C398.853 486.811 397.922 487.741 397.922 488.889C397.922 490.038 398.853 490.968 400.001 490.968Z" fill="white"/>
<path d="M444.446 490.968C445.594 490.968 446.525 490.038 446.525 488.889C446.525 487.741 445.594 486.811 444.446 486.811C443.298 486.811 442.367 487.741 442.367 488.889C442.367 490.038 443.298 490.968 444.446 490.968Z" fill="white"/>
<path d="M488.891 490.968C490.04 490.968 490.97 490.038 490.97 488.889C490.97 487.741 490.04 486.811 488.891 486.811C487.743 486.811 486.812 487.741 486.812 488.889C486.812 490.038 487.743 490.968 488.891 490.968Z" fill="white"/>
<path d="M533.337 490.968C534.485 490.968 535.416 490.038 535.416 488.889C535.416 487.741 534.485 486.811 533.337 486.811C532.189 486.811 531.258 487.741 531.258 488.889C531.258 490.038 532.189 490.968 533.337 490.968Z" fill="white"/>
<path d="M577.782 490.968C578.93 490.968 579.861 490.038 579.861 488.889C579.861 487.741 578.93 486.811 577.782 486.811C576.634 486.811 575.703 487.741 575.703 488.889C575.703 490.038 576.634 490.968 577.782 490.968Z" fill="white"/>
<path d="M622.22 490.968C623.368 490.968 624.299 490.038 624.299 488.889C624.299 487.741 623.368 486.811 622.22 486.811C621.071 486.811 620.141 487.741 620.141 488.889C620.141 490.038 621.071 490.968 622.22 490.968Z" fill="white"/>
<path d="M666.665 490.968C667.813 490.968 668.744 490.038 668.744 488.889C668.744 487.741 667.813 486.811 666.665 486.811C665.517 486.811 664.586 487.741 664.586 488.889C664.586 490.038 665.517 490.968 666.665 490.968Z" fill="white"/>
<path d="M711.11 490.968C712.258 490.968 713.189 490.038 713.189 488.889C713.189 487.741 712.258 486.811 711.11 486.811C709.962 486.811 709.031 487.741 709.031 488.889C709.031 490.038 709.962 490.968 711.11 490.968Z" fill="white"/>
<path d="M755.555 490.968C756.704 490.968 757.634 490.038 757.634 488.889C757.634 487.741 756.704 486.811 755.555 486.811C754.407 486.811 753.477 487.741 753.477 488.889C753.477 490.038 754.407 490.968 755.555 490.968Z" fill="white"/>
<path d="M800.001 490.968C801.149 490.968 802.08 490.038 802.08 488.889C802.08 487.741 801.149 486.811 800.001 486.811C798.853 486.811 797.922 487.741 797.922 488.889C797.922 490.038 798.853 490.968 800.001 490.968Z" fill="white"/>
<path d="M0.000822306 535.414C1.14899 535.414 2.07977 534.483 2.07977 533.335C2.07977 532.187 1.14899 531.256 0.000822306 531.256C-1.14735 531.256 -2.07812 532.187 -2.07812 533.335C-2.07812 534.483 -1.14735 535.414 0.000822306 535.414Z" fill="white"/>
<path d="M44.4461 535.414C45.5943 535.414 46.5251 534.483 46.5251 533.335C46.5251 532.187 45.5943 531.256 44.4461 531.256C43.298 531.256 42.3672 532.187 42.3672 533.335C42.3672 534.483 43.298 535.414 44.4461 535.414Z" fill="white"/>
<path d="M88.8914 535.414C90.0396 535.414 90.9704 534.483 90.9704 533.335C90.9704 532.187 90.0396 531.256 88.8914 531.256C87.7433 531.256 86.8125 532.187 86.8125 533.335C86.8125 534.483 87.7433 535.414 88.8914 535.414Z" fill="white"/>
<path d="M133.337 535.414C134.485 535.414 135.416 534.483 135.416 533.335C135.416 532.187 134.485 531.256 133.337 531.256C132.189 531.256 131.258 532.187 131.258 533.335C131.258 534.483 132.189 535.414 133.337 535.414Z" fill="white"/>
<path d="M177.782 535.414C178.93 535.414 179.861 534.483 179.861 533.335C179.861 532.187 178.93 531.256 177.782 531.256C176.634 531.256 175.703 532.187 175.703 533.335C175.703 534.483 176.634 535.414 177.782 535.414Z" fill="white"/>
<path d="M222.22 535.414C223.368 535.414 224.299 534.483 224.299 533.335C224.299 532.187 223.368 531.256 222.22 531.256C221.071 531.256 220.141 532.187 220.141 533.335C220.141 534.483 221.071 535.414 222.22 535.414Z" fill="white"/>
<path d="M266.665 535.414C267.813 535.414 268.744 534.483 268.744 533.335C268.744 532.187 267.813 531.256 266.665 531.256C265.517 531.256 264.586 532.187 264.586 533.335C264.586 534.483 265.517 535.414 266.665 535.414Z" fill="white"/>
<path d="M311.11 535.414C312.258 535.414 313.189 534.483 313.189 533.335C313.189 532.187 312.258 531.256 311.11 531.256C309.962 531.256 309.031 532.187 309.031 533.335C309.031 534.483 309.962 535.414 311.11 535.414Z" fill="white"/>
<path d="M355.556 535.414C356.704 535.414 357.634 534.483 357.634 533.335C357.634 532.187 356.704 531.256 355.556 531.256C354.407 531.256 353.477 532.187 353.477 533.335C353.477 534.483 354.407 535.414 355.556 535.414Z" fill="white"/>
<path d="M400.001 535.414C401.149 535.414 402.08 534.483 402.08 533.335C402.08 532.187 401.149 531.256 400.001 531.256C398.853 531.256 397.922 532.187 397.922 533.335C397.922 534.483 398.853 535.414 400.001 535.414Z" fill="white"/>
<path d="M444.446 535.414C445.594 535.414 446.525 534.483 446.525 533.335C446.525 532.187 445.594 531.256 444.446 531.256C443.298 531.256 442.367 532.187 442.367 533.335C442.367 534.483 443.298 535.414 444.446 535.414Z" fill="white"/>
<path d="M488.891 535.414C490.04 535.414 490.97 534.483 490.97 533.335C490.97 532.187 490.04 531.256 488.891 531.256C487.743 531.256 486.812 532.187 486.812 533.335C486.812 534.483 487.743 535.414 488.891 535.414Z" fill="white"/>
<path d="M533.337 535.414C534.485 535.414 535.416 534.483 535.416 533.335C535.416 532.187 534.485 531.256 533.337 531.256C532.189 531.256 531.258 532.187 531.258 533.335C531.258 534.483 532.189 535.414 533.337 535.414Z" fill="white"/>
<path d="M577.782 535.414C578.93 535.414 579.861 534.483 579.861 533.335C579.861 532.187 578.93 531.256 577.782 531.256C576.634 531.256 575.703 532.187 575.703 533.335C575.703 534.483 576.634 535.414 577.782 535.414Z" fill="white"/>
<path d="M622.22 535.414C623.368 535.414 624.299 534.483 624.299 533.335C624.299 532.187 623.368 531.256 622.22 531.256C621.071 531.256 620.141 532.187 620.141 533.335C620.141 534.483 621.071 535.414 622.22 535.414Z" fill="white"/>
<path d="M666.665 535.414C667.813 535.414 668.744 534.483 668.744 533.335C668.744 532.187 667.813 531.256 666.665 531.256C665.517 531.256 664.586 532.187 664.586 533.335C664.586 534.483 665.517 535.414 666.665 535.414Z" fill="white"/>
<path d="M711.11 535.414C712.258 535.414 713.189 534.483 713.189 533.335C713.189 532.187 712.258 531.256 711.11 531.256C709.962 531.256 709.031 532.187 709.031 533.335C709.031 534.483 709.962 535.414 711.11 535.414Z" fill="white"/>
<path d="M755.555 535.414C756.704 535.414 757.634 534.483 757.634 533.335C757.634 532.187 756.704 531.256 755.555 531.256C754.407 531.256 753.477 532.187 753.477 533.335C753.477 534.483 754.407 535.414 755.555 535.414Z" fill="white"/>
<path d="M800.001 535.414C801.149 535.414 802.08 534.483 802.08 533.335C802.08 532.187 801.149 531.256 800.001 531.256C798.853 531.256 797.922 532.187 797.922 533.335C797.922 534.483 798.853 535.414 800.001 535.414Z" fill="white"/>
<path d="M0.000822306 579.857C1.14899 579.857 2.07977 578.926 2.07977 577.778C2.07977 576.63 1.14899 575.699 0.000822306 575.699C-1.14735 575.699 -2.07812 576.63 -2.07812 577.778C-2.07812 578.926 -1.14735 579.857 0.000822306 579.857Z" fill="white"/>
<path d="M44.4461 579.857C45.5943 579.857 46.5251 578.926 46.5251 577.778C46.5251 576.63 45.5943 575.699 44.4461 575.699C43.298 575.699 42.3672 576.63 42.3672 577.778C42.3672 578.926 43.298 579.857 44.4461 579.857Z" fill="white"/>
<path d="M88.8914 579.857C90.0396 579.857 90.9704 578.926 90.9704 577.778C90.9704 576.63 90.0396 575.699 88.8914 575.699C87.7433 575.699 86.8125 576.63 86.8125 577.778C86.8125 578.926 87.7433 579.857 88.8914 579.857Z" fill="white"/>
<path d="M133.337 579.857C134.485 579.857 135.416 578.926 135.416 577.778C135.416 576.63 134.485 575.699 133.337 575.699C132.189 575.699 131.258 576.63 131.258 577.778C131.258 578.926 132.189 579.857 133.337 579.857Z" fill="white"/>
<path d="M177.782 579.857C178.93 579.857 179.861 578.926 179.861 577.778C179.861 576.63 178.93 575.699 177.782 575.699C176.634 575.699 175.703 576.63 175.703 577.778C175.703 578.926 176.634 579.857 177.782 579.857Z" fill="white"/>
<path d="M222.22 579.857C223.368 579.857 224.299 578.926 224.299 577.778C224.299 576.63 223.368 575.699 222.22 575.699C221.071 575.699 220.141 576.63 220.141 577.778C220.141 578.926 221.071 579.857 222.22 579.857Z" fill="white"/>
<path d="M266.665 579.857C267.813 579.857 268.744 578.926 268.744 577.778C268.744 576.63 267.813 575.699 266.665 575.699C265.517 575.699 264.586 576.63 264.586 577.778C264.586 578.926 265.517 579.857 266.665 579.857Z" fill="white"/>
<path d="M311.11 579.857C312.258 579.857 313.189 578.926 313.189 577.778C313.189 576.63 312.258 575.699 311.11 575.699C309.962 575.699 309.031 576.63 309.031 577.778C309.031 578.926 309.962 579.857 311.11 579.857Z" fill="white"/>
<path d="M355.556 579.857C356.704 579.857 357.634 578.926 357.634 577.778C357.634 576.63 356.704 575.699 355.556 575.699C354.407 575.699 353.477 576.63 353.477 577.778C353.477 578.926 354.407 579.857 355.556 579.857Z" fill="white"/>
<path d="M400.001 579.857C401.149 579.857 402.08 578.926 402.08 577.778C402.08 576.63 401.149 575.699 400.001 575.699C398.853 575.699 397.922 576.63 397.922 577.778C397.922 578.926 398.853 579.857 400.001 579.857Z" fill="white"/>
<path d="M444.446 579.857C445.594 579.857 446.525 578.926 446.525 577.778C446.525 576.63 445.594 575.699 444.446 575.699C443.298 575.699 442.367 576.63 442.367 577.778C442.367 578.926 443.298 579.857 444.446 579.857Z" fill="white"/>
<path d="M488.891 579.857C490.04 579.857 490.97 578.926 490.97 577.778C490.97 576.63 490.04 575.699 488.891 575.699C487.743 575.699 486.812 576.63 486.812 577.778C486.812 578.926 487.743 579.857 488.891 579.857Z" fill="white"/>
<path d="M533.337 579.857C534.485 579.857 535.416 578.926 535.416 577.778C535.416 576.63 534.485 575.699 533.337 575.699C532.189 575.699 531.258 576.63 531.258 577.778C531.258 578.926 532.189 579.857 533.337 579.857Z" fill="white"/>
<path d="M577.782 579.857C578.93 579.857 579.861 578.926 579.861 577.778C579.861 576.63 578.93 575.699 577.782 575.699C576.634 575.699 575.703 576.63 575.703 577.778C575.703 578.926 576.634 579.857 577.782 579.857Z" fill="white"/>
<path d="M622.22 579.857C623.368 579.857 624.299 578.926 624.299 577.778C624.299 576.63 623.368 575.699 622.22 575.699C621.071 575.699 620.141 576.63 620.141 577.778C620.141 578.926 621.071 579.857 622.22 579.857Z" fill="white"/>
<path d="M666.665 579.857C667.813 579.857 668.744 578.926 668.744 577.778C668.744 576.63 667.813 575.699 666.665 575.699C665.517 575.699 664.586 576.63 664.586 577.778C664.586 578.926 665.517 579.857 666.665 579.857Z" fill="white"/>
<path d="M711.11 579.857C712.258 579.857 713.189 578.926 713.189 577.778C713.189 576.63 712.258 575.699 711.11 575.699C709.962 575.699 709.031 576.63 709.031 577.778C709.031 578.926 709.962 579.857 711.11 579.857Z" fill="white"/>
<path d="M755.555 579.857C756.704 579.857 757.634 578.926 757.634 577.778C757.634 576.63 756.704 575.699 755.555 575.699C754.407 575.699 753.477 576.63 753.477 577.778C753.477 578.926 754.407 579.857 755.555 579.857Z" fill="white"/>
<path d="M800.001 579.857C801.149 579.857 802.08 578.926 802.08 577.778C802.08 576.63 801.149 575.699 800.001 575.699C798.853 575.699 797.922 576.63 797.922 577.778C797.922 578.926 798.853 579.857 800.001 579.857Z" fill="white"/>
<path d="M0.000822306 624.302C1.14899 624.302 2.07977 623.372 2.07977 622.224C2.07977 621.075 1.14899 620.145 0.000822306 620.145C-1.14735 620.145 -2.07812 621.075 -2.07812 622.224C-2.07812 623.372 -1.14735 624.302 0.000822306 624.302Z" fill="white"/>
<path d="M44.4461 624.302C45.5943 624.302 46.5251 623.372 46.5251 622.224C46.5251 621.075 45.5943 620.145 44.4461 620.145C43.298 620.145 42.3672 621.075 42.3672 622.224C42.3672 623.372 43.298 624.302 44.4461 624.302Z" fill="white"/>
<path d="M88.8914 624.302C90.0396 624.302 90.9704 623.372 90.9704 622.224C90.9704 621.075 90.0396 620.145 88.8914 620.145C87.7433 620.145 86.8125 621.075 86.8125 622.224C86.8125 623.372 87.7433 624.302 88.8914 624.302Z" fill="white"/>
<path d="M133.337 624.302C134.485 624.302 135.416 623.372 135.416 622.224C135.416 621.075 134.485 620.145 133.337 620.145C132.189 620.145 131.258 621.075 131.258 622.224C131.258 623.372 132.189 624.302 133.337 624.302Z" fill="white"/>
<path d="M177.782 624.302C178.93 624.302 179.861 623.372 179.861 622.224C179.861 621.075 178.93 620.145 177.782 620.145C176.634 620.145 175.703 621.075 175.703 622.224C175.703 623.372 176.634 624.302 177.782 624.302Z" fill="white"/>
<path d="M222.22 624.302C223.368 624.302 224.299 623.372 224.299 622.224C224.299 621.075 223.368 620.145 222.22 620.145C221.071 620.145 220.141 621.075 220.141 622.224C220.141 623.372 221.071 624.302 222.22 624.302Z" fill="white"/>
<path d="M266.665 624.302C267.813 624.302 268.744 623.372 268.744 622.224C268.744 621.075 267.813 620.145 266.665 620.145C265.517 620.145 264.586 621.075 264.586 622.224C264.586 623.372 265.517 624.302 266.665 624.302Z" fill="white"/>
<path d="M311.11 624.302C312.258 624.302 313.189 623.372 313.189 622.224C313.189 621.075 312.258 620.145 311.11 620.145C309.962 620.145 309.031 621.075 309.031 622.224C309.031 623.372 309.962 624.302 311.11 624.302Z" fill="white"/>
<path d="M355.556 624.302C356.704 624.302 357.634 623.372 357.634 622.224C357.634 621.075 356.704 620.145 355.556 620.145C354.407 620.145 353.477 621.075 353.477 622.224C353.477 623.372 354.407 624.302 355.556 624.302Z" fill="white"/>
<path d="M400.001 624.302C401.149 624.302 402.08 623.372 402.08 622.224C402.08 621.075 401.149 620.145 400.001 620.145C398.853 620.145 397.922 621.075 397.922 622.224C397.922 623.372 398.853 624.302 400.001 624.302Z" fill="white"/>
<path d="M444.446 624.302C445.594 624.302 446.525 623.372 446.525 622.224C446.525 621.075 445.594 620.145 444.446 620.145C443.298 620.145 442.367 621.075 442.367 622.224C442.367 623.372 443.298 624.302 444.446 624.302Z" fill="white"/>
<path d="M488.891 624.302C490.04 624.302 490.97 623.372 490.97 622.224C490.97 621.075 490.04 620.145 488.891 620.145C487.743 620.145 486.812 621.075 486.812 622.224C486.812 623.372 487.743 624.302 488.891 624.302Z" fill="white"/>
<path d="M533.337 624.302C534.485 624.302 535.416 623.372 535.416 622.224C535.416 621.075 534.485 620.145 533.337 620.145C532.189 620.145 531.258 621.075 531.258 622.224C531.258 623.372 532.189 624.302 533.337 624.302Z" fill="white"/>
<path d="M577.782 624.302C578.93 624.302 579.861 623.372 579.861 622.224C579.861 621.075 578.93 620.145 577.782 620.145C576.634 620.145 575.703 621.075 575.703 622.224C575.703 623.372 576.634 624.302 577.782 624.302Z" fill="white"/>
<path d="M622.22 624.302C623.368 624.302 624.299 623.372 624.299 622.224C624.299 621.075 623.368 620.145 622.22 620.145C621.071 620.145 620.141 621.075 620.141 622.224C620.141 623.372 621.071 624.302 622.22 624.302Z" fill="white"/>
<path d="M666.665 624.302C667.813 624.302 668.744 623.372 668.744 622.224C668.744 621.075 667.813 620.145 666.665 620.145C665.517 620.145 664.586 621.075 664.586 622.224C664.586 623.372 665.517 624.302 666.665 624.302Z" fill="white"/>
<path d="M711.11 624.302C712.258 624.302 713.189 623.372 713.189 622.224C713.189 621.075 712.258 620.145 711.11 620.145C709.962 620.145 709.031 621.075 709.031 622.224C709.031 623.372 709.962 624.302 711.11 624.302Z" fill="white"/>
<path d="M755.555 624.302C756.704 624.302 757.634 623.372 757.634 622.224C757.634 621.075 756.704 620.145 755.555 620.145C754.407 620.145 753.477 621.075 753.477 622.224C753.477 623.372 754.407 624.302 755.555 624.302Z" fill="white"/>
<path d="M800.001 624.302C801.149 624.302 802.08 623.372 802.08 622.224C802.08 621.075 801.149 620.145 800.001 620.145C798.853 620.145 797.922 621.075 797.922 622.224C797.922 623.372 798.853 624.302 800.001 624.302Z" fill="white"/>
<path d="M0.000822306 668.746C1.14899 668.746 2.07977 667.815 2.07977 666.667C2.07977 665.519 1.14899 664.588 0.000822306 664.588C-1.14735 664.588 -2.07812 665.519 -2.07812 666.667C-2.07812 667.815 -1.14735 668.746 0.000822306 668.746Z" fill="white"/>
<path d="M44.4461 668.746C45.5943 668.746 46.5251 667.815 46.5251 666.667C46.5251 665.519 45.5943 664.588 44.4461 664.588C43.298 664.588 42.3672 665.519 42.3672 666.667C42.3672 667.815 43.298 668.746 44.4461 668.746Z" fill="white"/>
<path d="M88.8914 668.746C90.0396 668.746 90.9704 667.815 90.9704 666.667C90.9704 665.519 90.0396 664.588 88.8914 664.588C87.7433 664.588 86.8125 665.519 86.8125 666.667C86.8125 667.815 87.7433 668.746 88.8914 668.746Z" fill="white"/>
<path d="M133.337 668.746C134.485 668.746 135.416 667.815 135.416 666.667C135.416 665.519 134.485 664.588 133.337 664.588C132.189 664.588 131.258 665.519 131.258 666.667C131.258 667.815 132.189 668.746 133.337 668.746Z" fill="white"/>
<path d="M177.782 668.746C178.93 668.746 179.861 667.815 179.861 666.667C179.861 665.519 178.93 664.588 177.782 664.588C176.634 664.588 175.703 665.519 175.703 666.667C175.703 667.815 176.634 668.746 177.782 668.746Z" fill="white"/>
<path d="M222.22 668.746C223.368 668.746 224.299 667.815 224.299 666.667C224.299 665.519 223.368 664.588 222.22 664.588C221.071 664.588 220.141 665.519 220.141 666.667C220.141 667.815 221.071 668.746 222.22 668.746Z" fill="white"/>
<path d="M266.665 668.746C267.813 668.746 268.744 667.815 268.744 666.667C268.744 665.519 267.813 664.588 266.665 664.588C265.517 664.588 264.586 665.519 264.586 666.667C264.586 667.815 265.517 668.746 266.665 668.746Z" fill="white"/>
<path d="M311.11 668.746C312.258 668.746 313.189 667.815 313.189 666.667C313.189 665.519 312.258 664.588 311.11 664.588C309.962 664.588 309.031 665.519 309.031 666.667C309.031 667.815 309.962 668.746 311.11 668.746Z" fill="white"/>
<path d="M355.556 668.746C356.704 668.746 357.634 667.815 357.634 666.667C357.634 665.519 356.704 664.588 355.556 664.588C354.407 664.588 353.477 665.519 353.477 666.667C353.477 667.815 354.407 668.746 355.556 668.746Z" fill="white"/>
<path d="M400.001 668.746C401.149 668.746 402.08 667.815 402.08 666.667C402.08 665.519 401.149 664.588 400.001 664.588C398.853 664.588 397.922 665.519 397.922 666.667C397.922 667.815 398.853 668.746 400.001 668.746Z" fill="white"/>
<path d="M444.446 668.746C445.594 668.746 446.525 667.815 446.525 666.667C446.525 665.519 445.594 664.588 444.446 664.588C443.298 664.588 442.367 665.519 442.367 666.667C442.367 667.815 443.298 668.746 444.446 668.746Z" fill="white"/>
<path d="M488.891 668.746C490.04 668.746 490.97 667.815 490.97 666.667C490.97 665.519 490.04 664.588 488.891 664.588C487.743 664.588 486.812 665.519 486.812 666.667C486.812 667.815 487.743 668.746 488.891 668.746Z" fill="white"/>
<path d="M533.337 668.746C534.485 668.746 535.416 667.815 535.416 666.667C535.416 665.519 534.485 664.588 533.337 664.588C532.189 664.588 531.258 665.519 531.258 666.667C531.258 667.815 532.189 668.746 533.337 668.746Z" fill="white"/>
<path d="M577.782 668.746C578.93 668.746 579.861 667.815 579.861 666.667C579.861 665.519 578.93 664.588 577.782 664.588C576.634 664.588 575.703 665.519 575.703 666.667C575.703 667.815 576.634 668.746 577.782 668.746Z" fill="white"/>
<path d="M622.22 668.746C623.368 668.746 624.299 667.815 624.299 666.667C624.299 665.519 623.368 664.588 622.22 664.588C621.071 664.588 620.141 665.519 620.141 666.667C620.141 667.815 621.071 668.746 622.22 668.746Z" fill="white"/>
<path d="M666.665 668.746C667.813 668.746 668.744 667.815 668.744 666.667C668.744 665.519 667.813 664.588 666.665 664.588C665.517 664.588 664.586 665.519 664.586 666.667C664.586 667.815 665.517 668.746 666.665 668.746Z" fill="white"/>
<path d="M711.11 668.746C712.258 668.746 713.189 667.815 713.189 666.667C713.189 665.519 712.258 664.588 711.11 664.588C709.962 664.588 709.031 665.519 709.031 666.667C709.031 667.815 709.962 668.746 711.11 668.746Z" fill="white"/>
<path d="M755.555 668.746C756.704 668.746 757.634 667.815 757.634 666.667C757.634 665.519 756.704 664.588 755.555 664.588C754.407 664.588 753.477 665.519 753.477 666.667C753.477 667.815 754.407 668.746 755.555 668.746Z" fill="white"/>
<path d="M800.001 668.746C801.149 668.746 802.08 667.815 802.08 666.667C802.08 665.519 801.149 664.588 800.001 664.588C798.853 664.588 797.922 665.519 797.922 666.667C797.922 667.815 798.853 668.746 800.001 668.746Z" fill="white"/>
<path d="M0.000822306 713.191C1.14899 713.191 2.07977 712.26 2.07977 711.112C2.07977 709.964 1.14899 709.033 0.000822306 709.033C-1.14735 709.033 -2.07812 709.964 -2.07812 711.112C-2.07812 712.26 -1.14735 713.191 0.000822306 713.191Z" fill="white"/>
<path d="M44.4461 713.191C45.5943 713.191 46.5251 712.26 46.5251 711.112C46.5251 709.964 45.5943 709.033 44.4461 709.033C43.298 709.033 42.3672 709.964 42.3672 711.112C42.3672 712.26 43.298 713.191 44.4461 713.191Z" fill="white"/>
<path d="M88.8914 713.191C90.0396 713.191 90.9704 712.26 90.9704 711.112C90.9704 709.964 90.0396 709.033 88.8914 709.033C87.7433 709.033 86.8125 709.964 86.8125 711.112C86.8125 712.26 87.7433 713.191 88.8914 713.191Z" fill="white"/>
<path d="M133.337 713.191C134.485 713.191 135.416 712.26 135.416 711.112C135.416 709.964 134.485 709.033 133.337 709.033C132.189 709.033 131.258 709.964 131.258 711.112C131.258 712.26 132.189 713.191 133.337 713.191Z" fill="white"/>
<path d="M177.782 713.191C178.93 713.191 179.861 712.26 179.861 711.112C179.861 709.964 178.93 709.033 177.782 709.033C176.634 709.033 175.703 709.964 175.703 711.112C175.703 712.26 176.634 713.191 177.782 713.191Z" fill="white"/>
<path d="M222.22 713.191C223.368 713.191 224.299 712.26 224.299 711.112C224.299 709.964 223.368 709.033 222.22 709.033C221.071 709.033 220.141 709.964 220.141 711.112C220.141 712.26 221.071 713.191 222.22 713.191Z" fill="white"/>
<path d="M266.665 713.191C267.813 713.191 268.744 712.26 268.744 711.112C268.744 709.964 267.813 709.033 266.665 709.033C265.517 709.033 264.586 709.964 264.586 711.112C264.586 712.26 265.517 713.191 266.665 713.191Z" fill="white"/>
<path d="M311.11 713.191C312.258 713.191 313.189 712.26 313.189 711.112C313.189 709.964 312.258 709.033 311.11 709.033C309.962 709.033 309.031 709.964 309.031 711.112C309.031 712.26 309.962 713.191 311.11 713.191Z" fill="white"/>
<path d="M355.556 713.191C356.704 713.191 357.634 712.26 357.634 711.112C357.634 709.964 356.704 709.033 355.556 709.033C354.407 709.033 353.477 709.964 353.477 711.112C353.477 712.26 354.407 713.191 355.556 713.191Z" fill="white"/>
<path d="M400.001 713.191C401.149 713.191 402.08 712.26 402.08 711.112C402.08 709.964 401.149 709.033 400.001 709.033C398.853 709.033 397.922 709.964 397.922 711.112C397.922 712.26 398.853 713.191 400.001 713.191Z" fill="white"/>
<path d="M444.446 713.191C445.594 713.191 446.525 712.26 446.525 711.112C446.525 709.964 445.594 709.033 444.446 709.033C443.298 709.033 442.367 709.964 442.367 711.112C442.367 712.26 443.298 713.191 444.446 713.191Z" fill="white"/>
<path d="M488.891 713.191C490.04 713.191 490.97 712.26 490.97 711.112C490.97 709.964 490.04 709.033 488.891 709.033C487.743 709.033 486.812 709.964 486.812 711.112C486.812 712.26 487.743 713.191 488.891 713.191Z" fill="white"/>
<path d="M533.337 713.191C534.485 713.191 535.416 712.26 535.416 711.112C535.416 709.964 534.485 709.033 533.337 709.033C532.189 709.033 531.258 709.964 531.258 711.112C531.258 712.26 532.189 713.191 533.337 713.191Z" fill="white"/>
<path d="M577.782 713.191C578.93 713.191 579.861 712.26 579.861 711.112C579.861 709.964 578.93 709.033 577.782 709.033C576.634 709.033 575.703 709.964 575.703 711.112C575.703 712.26 576.634 713.191 577.782 713.191Z" fill="white"/>
<path d="M622.22 713.191C623.368 713.191 624.299 712.26 624.299 711.112C624.299 709.964 623.368 709.033 622.22 709.033C621.071 709.033 620.141 709.964 620.141 711.112C620.141 712.26 621.071 713.191 622.22 713.191Z" fill="white"/>
<path d="M666.665 713.191C667.813 713.191 668.744 712.26 668.744 711.112C668.744 709.964 667.813 709.033 666.665 709.033C665.517 709.033 664.586 709.964 664.586 711.112C664.586 712.26 665.517 713.191 666.665 713.191Z" fill="white"/>
<path d="M711.11 713.191C712.258 713.191 713.189 712.26 713.189 711.112C713.189 709.964 712.258 709.033 711.11 709.033C709.962 709.033 709.031 709.964 709.031 711.112C709.031 712.26 709.962 713.191 711.11 713.191Z" fill="white"/>
<path d="M755.555 713.191C756.704 713.191 757.634 712.26 757.634 711.112C757.634 709.964 756.704 709.033 755.555 709.033C754.407 709.033 753.477 709.964 753.477 711.112C753.477 712.26 754.407 713.191 755.555 713.191Z" fill="white"/>
<path d="M800.001 713.191C801.149 713.191 802.08 712.26 802.08 711.112C802.08 709.964 801.149 709.033 800.001 709.033C798.853 709.033 797.922 709.964 797.922 711.112C797.922 712.26 798.853 713.191 800.001 713.191Z" fill="white"/>
<path d="M0.000822306 757.634C1.14899 757.634 2.07977 756.704 2.07977 755.555C2.07977 754.407 1.14899 753.477 0.000822306 753.477C-1.14735 753.477 -2.07812 754.407 -2.07812 755.555C-2.07812 756.704 -1.14735 757.634 0.000822306 757.634Z" fill="white"/>
<path d="M44.4461 757.634C45.5943 757.634 46.5251 756.704 46.5251 755.555C46.5251 754.407 45.5943 753.477 44.4461 753.477C43.298 753.477 42.3672 754.407 42.3672 755.555C42.3672 756.704 43.298 757.634 44.4461 757.634Z" fill="white"/>
<path d="M88.8914 757.634C90.0396 757.634 90.9704 756.704 90.9704 755.555C90.9704 754.407 90.0396 753.477 88.8914 753.477C87.7433 753.477 86.8125 754.407 86.8125 755.555C86.8125 756.704 87.7433 757.634 88.8914 757.634Z" fill="white"/>
<path d="M133.337 757.634C134.485 757.634 135.416 756.704 135.416 755.555C135.416 754.407 134.485 753.477 133.337 753.477C132.189 753.477 131.258 754.407 131.258 755.555C131.258 756.704 132.189 757.634 133.337 757.634Z" fill="white"/>
<path d="M177.782 757.634C178.93 757.634 179.861 756.704 179.861 755.555C179.861 754.407 178.93 753.477 177.782 753.477C176.634 753.477 175.703 754.407 175.703 755.555C175.703 756.704 176.634 757.634 177.782 757.634Z" fill="white"/>
<path d="M222.22 757.634C223.368 757.634 224.299 756.704 224.299 755.555C224.299 754.407 223.368 753.477 222.22 753.477C221.071 753.477 220.141 754.407 220.141 755.555C220.141 756.704 221.071 757.634 222.22 757.634Z" fill="white"/>
<path d="M266.665 757.634C267.813 757.634 268.744 756.704 268.744 755.555C268.744 754.407 267.813 753.477 266.665 753.477C265.517 753.477 264.586 754.407 264.586 755.555C264.586 756.704 265.517 757.634 266.665 757.634Z" fill="white"/>
<path d="M311.11 757.634C312.258 757.634 313.189 756.704 313.189 755.555C313.189 754.407 312.258 753.477 311.11 753.477C309.962 753.477 309.031 754.407 309.031 755.555C309.031 756.704 309.962 757.634 311.11 757.634Z" fill="white"/>
<path d="M355.556 757.634C356.704 757.634 357.634 756.704 357.634 755.555C357.634 754.407 356.704 753.477 355.556 753.477C354.407 753.477 353.477 754.407 353.477 755.555C353.477 756.704 354.407 757.634 355.556 757.634Z" fill="white"/>
<path d="M400.001 757.634C401.149 757.634 402.08 756.704 402.08 755.555C402.08 754.407 401.149 753.477 400.001 753.477C398.853 753.477 397.922 754.407 397.922 755.555C397.922 756.704 398.853 757.634 400.001 757.634Z" fill="white"/>
<path d="M444.446 757.634C445.594 757.634 446.525 756.704 446.525 755.555C446.525 754.407 445.594 753.477 444.446 753.477C443.298 753.477 442.367 754.407 442.367 755.555C442.367 756.704 443.298 757.634 444.446 757.634Z" fill="white"/>
<path d="M488.891 757.634C490.04 757.634 490.97 756.704 490.97 755.555C490.97 754.407 490.04 753.477 488.891 753.477C487.743 753.477 486.812 754.407 486.812 755.555C486.812 756.704 487.743 757.634 488.891 757.634Z" fill="white"/>
<path d="M533.337 757.634C534.485 757.634 535.416 756.704 535.416 755.555C535.416 754.407 534.485 753.477 533.337 753.477C532.189 753.477 531.258 754.407 531.258 755.555C531.258 756.704 532.189 757.634 533.337 757.634Z" fill="white"/>
<path d="M577.782 757.634C578.93 757.634 579.861 756.704 579.861 755.555C579.861 754.407 578.93 753.477 577.782 753.477C576.634 753.477 575.703 754.407 575.703 755.555C575.703 756.704 576.634 757.634 577.782 757.634Z" fill="white"/>
<path d="M622.22 757.634C623.368 757.634 624.299 756.704 624.299 755.555C624.299 754.407 623.368 753.477 622.22 753.477C621.071 753.477 620.141 754.407 620.141 755.555C620.141 756.704 621.071 757.634 622.22 757.634Z" fill="white"/>
<path d="M666.665 757.634C667.813 757.634 668.744 756.704 668.744 755.555C668.744 754.407 667.813 753.477 666.665 753.477C665.517 753.477 664.586 754.407 664.586 755.555C664.586 756.704 665.517 757.634 666.665 757.634Z" fill="white"/>
<path d="M711.11 757.634C712.258 757.634 713.189 756.704 713.189 755.555C713.189 754.407 712.258 753.477 711.11 753.477C709.962 753.477 709.031 754.407 709.031 755.555C709.031 756.704 709.962 757.634 711.11 757.634Z" fill="white"/>
<path d="M755.555 757.634C756.704 757.634 757.634 756.704 757.634 755.555C757.634 754.407 756.704 753.477 755.555 753.477C754.407 753.477 753.477 754.407 753.477 755.555C753.477 756.704 754.407 757.634 755.555 757.634Z" fill="white"/>
<path d="M800.001 757.634C801.149 757.634 802.08 756.704 802.08 755.555C802.08 754.407 801.149 753.477 800.001 753.477C798.853 753.477 797.922 754.407 797.922 755.555C797.922 756.704 798.853 757.634 800.001 757.634Z" fill="white"/>
<path d="M0.000822306 802.08C1.14899 802.08 2.07977 801.149 2.07977 800.001C2.07977 798.853 1.14899 797.922 0.000822306 797.922C-1.14735 797.922 -2.07812 798.853 -2.07812 800.001C-2.07812 801.149 -1.14735 802.08 0.000822306 802.08Z" fill="white"/>
<path d="M44.4461 802.08C45.5943 802.08 46.5251 801.149 46.5251 800.001C46.5251 798.853 45.5943 797.922 44.4461 797.922C43.298 797.922 42.3672 798.853 42.3672 800.001C42.3672 801.149 43.298 802.08 44.4461 802.08Z" fill="white"/>
<path d="M88.8914 802.08C90.0396 802.08 90.9704 801.149 90.9704 800.001C90.9704 798.853 90.0396 797.922 88.8914 797.922C87.7433 797.922 86.8125 798.853 86.8125 800.001C86.8125 801.149 87.7433 802.08 88.8914 802.08Z" fill="white"/>
<path d="M133.337 802.08C134.485 802.08 135.416 801.149 135.416 800.001C135.416 798.853 134.485 797.922 133.337 797.922C132.189 797.922 131.258 798.853 131.258 800.001C131.258 801.149 132.189 802.08 133.337 802.08Z" fill="white"/>
<path d="M177.782 802.08C178.93 802.08 179.861 801.149 179.861 800.001C179.861 798.853 178.93 797.922 177.782 797.922C176.634 797.922 175.703 798.853 175.703 800.001C175.703 801.149 176.634 802.08 177.782 802.08Z" fill="white"/>
<path d="M222.22 802.08C223.368 802.08 224.299 801.149 224.299 800.001C224.299 798.853 223.368 797.922 222.22 797.922C221.071 797.922 220.141 798.853 220.141 800.001C220.141 801.149 221.071 802.08 222.22 802.08Z" fill="white"/>
<path d="M266.665 802.08C267.813 802.08 268.744 801.149 268.744 800.001C268.744 798.853 267.813 797.922 266.665 797.922C265.517 797.922 264.586 798.853 264.586 800.001C264.586 801.149 265.517 802.08 266.665 802.08Z" fill="white"/>
<path d="M311.11 802.08C312.258 802.08 313.189 801.149 313.189 800.001C313.189 798.853 312.258 797.922 311.11 797.922C309.962 797.922 309.031 798.853 309.031 800.001C309.031 801.149 309.962 802.08 311.11 802.08Z" fill="white"/>
<path d="M355.556 802.08C356.704 802.08 357.634 801.149 357.634 800.001C357.634 798.853 356.704 797.922 355.556 797.922C354.407 797.922 353.477 798.853 353.477 800.001C353.477 801.149 354.407 802.08 355.556 802.08Z" fill="white"/>
<path d="M400.001 802.08C401.149 802.08 402.08 801.149 402.08 800.001C402.08 798.853 401.149 797.922 400.001 797.922C398.853 797.922 397.922 798.853 397.922 800.001C397.922 801.149 398.853 802.08 400.001 802.08Z" fill="white"/>
<path d="M444.446 802.08C445.594 802.08 446.525 801.149 446.525 800.001C446.525 798.853 445.594 797.922 444.446 797.922C443.298 797.922 442.367 798.853 442.367 800.001C442.367 801.149 443.298 802.08 444.446 802.08Z" fill="white"/>
<path d="M488.891 802.08C490.04 802.08 490.97 801.149 490.97 800.001C490.97 798.853 490.04 797.922 488.891 797.922C487.743 797.922 486.812 798.853 486.812 800.001C486.812 801.149 487.743 802.08 488.891 802.08Z" fill="white"/>
<path d="M533.337 802.08C534.485 802.08 535.416 801.149 535.416 800.001C535.416 798.853 534.485 797.922 533.337 797.922C532.189 797.922 531.258 798.853 531.258 800.001C531.258 801.149 532.189 802.08 533.337 802.08Z" fill="white"/>
<path d="M577.782 802.08C578.93 802.08 579.861 801.149 579.861 800.001C579.861 798.853 578.93 797.922 577.782 797.922C576.634 797.922 575.703 798.853 575.703 800.001C575.703 801.149 576.634 802.08 577.782 802.08Z" fill="white"/>
<path d="M622.22 802.08C623.368 802.08 624.299 801.149 624.299 800.001C624.299 798.853 623.368 797.922 622.22 797.922C621.071 797.922 620.141 798.853 620.141 800.001C620.141 801.149 621.071 802.08 622.22 802.08Z" fill="white"/>
<path d="M666.665 802.08C667.813 802.08 668.744 801.149 668.744 800.001C668.744 798.853 667.813 797.922 666.665 797.922C665.517 797.922 664.586 798.853 664.586 800.001C664.586 801.149 665.517 802.08 666.665 802.08Z" fill="white"/>
<path d="M711.11 802.08C712.258 802.08 713.189 801.149 713.189 800.001C713.189 798.853 712.258 797.922 711.11 797.922C709.962 797.922 709.031 798.853 709.031 800.001C709.031 801.149 709.962 802.08 711.11 802.08Z" fill="white"/>
<path d="M755.555 802.08C756.704 802.08 757.634 801.149 757.634 800.001C757.634 798.853 756.704 797.922 755.555 797.922C754.407 797.922 753.477 798.853 753.477 800.001C753.477 801.149 754.407 802.08 755.555 802.08Z" fill="white"/>
<path d="M800.001 802.08C801.149 802.08 802.08 801.149 802.08 800.001C802.08 798.853 801.149 797.922 800.001 797.922C798.853 797.922 797.922 798.853 797.922 800.001C797.922 801.149 798.853 802.08 800.001 802.08Z" fill="white"/>
</svg>
